<?xml version="1.0" encoding="UTF-8" standalone="no"?>
<!-- Created with Inkscape (http://www.inkscape.org/) -->

<svg
   version="1.1"
   id="svg2708"
   width="728.54742"
   height="286.46838"
   viewBox="0 0 728.54742 286.46839"
   sodipodi:docname="n1.svg"
   inkscape:version="1.2.2 (732a01da63, 2022-12-09, custom)"
   xmlns:inkscape="http://www.inkscape.org/namespaces/inkscape"
   xmlns:sodipodi="http://sodipodi.sourceforge.net/DTD/sodipodi-0.dtd"
   xmlns="http://www.w3.org/2000/svg"
   xmlns:svg="http://www.w3.org/2000/svg">
  <defs
     id="defs2712" />
  <sodipodi:namedview
     id="namedview2710"
     pagecolor="#ffffff"
     bordercolor="#000000"
     borderopacity="0.25"
     inkscape:showpageshadow="2"
     inkscape:pageopacity="0.0"
     inkscape:pagecheckerboard="0"
     inkscape:deskcolor="#d1d1d1"
     showgrid="false"
     inkscape:zoom="1.4092105"
     inkscape:cx="358.35668"
     inkscape:cy="144.05229"
     inkscape:window-width="1920"
     inkscape:window-height="1031"
     inkscape:window-x="0"
     inkscape:window-y="25"
     inkscape:window-maximized="1"
     inkscape:current-layer="layer1" />
  <g
     inkscape:groupmode="layer"
     id="layer1"
     inkscape:label="Layer 1"
     transform="translate(-17.333333,-21.350035)">
    <path
       style="fill:#000000;stroke-width:1.33333"
       d="M 552.5044,306.0841 C 546.84393,303.62053 544,299.13057 544,292.65746 c 0,-4.70467 -0.56903,-5.74657 -4.33333,-7.9344 -2.38334,-1.38521 -5.6373,-3.76457 -7.23104,-5.28748 -5.26574,-5.03171 -11.44283,-9.38897 -18.31792,-12.92129 -3.7314,-1.91715 -6.61951,-4.21175 -6.418,-5.09911 0.20149,-0.88737 -0.15895,-1.28873 -0.80102,-0.89192 -0.64205,0.39681 -3.13088,-0.72717 -5.53074,-2.49773 -2.39986,-1.77056 -6.0894,-3.5983 -8.199,-4.06164 -2.10959,-0.46335 -3.83562,-1.39478 -3.83562,-2.06984 0,-0.67506 -0.64285,-1.22739 -1.42857,-1.22739 -0.78571,0 -2.33408,-0.90552 -3.44083,-2.01225 -1.10673,-1.10675 -2.56388,-1.67133 -3.23809,-1.25464 -0.67421,0.41668 -1.23503,-0.3278 -1.24625,-1.65441 -0.0173,-2.04508 -0.21706,-2.10776 -1.31292,-0.41203 -1.06423,1.64677 -1.29611,1.6664 -1.31292,0.11107 -0.0107,-1.03888 -0.38428,-1.52502 -0.82902,-1.08028 -0.44473,0.44472 -2.05786,-0.35528 -3.58474,-1.77779 C 471.41311,241.16386 469.19697,240 468.01525,240 c -1.18172,0 -2.95661,-0.75 -3.94418,-1.66667 -1.4365,-1.33333 -1.60742,-1.33333 -0.85466,0 0.51754,0.91667 0.30556,1.66667 -0.47105,1.66667 -0.77661,0 -1.43855,-0.75 -1.47096,-1.66667 -0.0324,-0.91667 -1.29993,0.73333 -2.81672,3.66667 -1.5168,2.93333 -4.15788,6.83333 -5.86908,8.66666 -2.38525,2.55548 -11.14336,17.86876 -11.23837,19.64995 -0.009,0.17413 2.40641,1.84637 5.36822,3.71608 2.96183,1.86972 5.94698,4.87724 6.63367,6.6834 0.68671,1.80614 1.82296,3.2839 2.52503,3.2839 2.5868,0 2.9244,5.36022 0.58684,9.3174 -2.20792,3.73771 -2.91268,4.01594 -10.17246,4.01594 -4.29009,0 -8.86121,0.56785 -10.15804,1.26189 -5.41242,2.89664 -38.4773,1.7458 -42.38112,-1.47509 -3.95089,-3.25974 -3.4667,-9.17035 1.53304,-18.71459 3.0114,-5.7486 4.73919,-10.75365 4.49987,-13.03521 -0.21367,-2.03699 0.39595,-4.6488 1.35471,-5.80403 0.95874,-1.15523 1.88348,-3.05635 2.05496,-4.22472 0.17148,-1.16837 1.31689,-3.2982 2.54537,-4.73295 1.22847,-1.43476 1.606,-2.60864 0.83895,-2.60864 -0.76706,0 0.108,-1.34999 1.94454,-2.99999 4.34194,-3.9009 5.19654,-8.49232 1.47619,-7.93096 -10.67944,1.61141 -17.36125,1.57457 -37.40276,-0.20622 -25.09792,-2.23008 -26.25243,-2.39557 -27.38083,-3.92469 -0.43097,-0.58401 -2.83097,-1.24065 -5.33333,-1.45919 -2.50236,-0.21852 -5.74975,-0.85458 -7.21641,-1.41346 -17.03847,-6.49258 -25.86687,-9.00582 -29.53663,-8.4084 C 299.75207,222.207 296,225.06236 296,227.0831 c 0,0.7828 -2.50743,5.5732 -5.57207,10.64535 -5.21033,8.62339 -5.46426,9.49421 -3.9115,13.41349 0.91332,2.30527 2.46804,7.17703 3.45494,10.82613 1.9692,7.2812 6.7306,12.37232 12.68474,13.56315 2.08417,0.41683 7.02072,4.10001 11.32481,8.44949 8.58039,8.67086 8.81025,10.78752 1.73932,16.0153 -3.52516,2.60625 -6.08973,3.1956 -14.98659,3.44394 -19.35253,0.54022 -34.18789,-0.84809 -35.0445,-3.2795 -0.41863,-1.18826 -1.69015,-3.24051 -2.82559,-4.56059 -1.61296,-1.87524 -1.76288,-3.19903 -0.68556,-6.05319 2.21108,-5.8578 -0.32651,-9.17722 -12.43665,-16.26842 -3.80894,-2.23035 -8.1899,-6.10128 -9.73547,-8.60208 -2.39731,-3.87891 -2.60901,-5.29095 -1.44107,-9.61154 0.75299,-2.78554 2.31066,-6.40418 3.46147,-8.04141 1.58477,-2.2546 1.75016,-3.61625 0.68172,-5.61265 -0.77587,-1.44973 -1.33152,-3.11019 -1.23477,-3.68989 0.61269,-3.67134 -0.41348,-7.05402 -2.1399,-7.05402 -1.1,0 -2.01908,-0.75 -2.0424,-1.66666 -0.0237,-0.93291 -0.96497,-0.49264 -2.1379,1 -2.06142,2.62329 -2.08095,2.61786 -1.20108,-0.33334 0.99741,-3.34542 -0.55084,-3.84366 -4.82908,-1.55402 -1.48599,0.79528 -4.53943,1.67852 -6.78539,1.96277 -4.74284,0.60024 -9.6546,3.02275 -24.21888,11.94489 -5.80143,3.55399 -12.30649,6.65429 -14.45569,6.88959 -8.44898,0.92494 -20.39506,7.90068 -27.13968,15.84777 -3.58778,4.22743 -7.59574,8.80887 -8.90658,10.18096 -1.31084,1.37211 -3.41084,4.13555 -4.66666,6.141 -5.92136,9.45592 -14.01118,18.65107 -18.75446,21.31693 -9.03635,5.07872 -12.54296,3.53202 -16.92213,-7.46404 -3.20241,-8.04125 -2.22515,-30.29345 1.72031,-39.17118 3.2321,-7.27263 9.37106,-11.39697 13.59734,-9.13513 6.26668,3.35382 7.03428,2.39834 14.29771,-17.79707 2.21329,-6.15391 5.55989,-12.42995 8.08069,-15.15412 3.85826,-4.16951 4.79787,-4.55704 9.09468,-3.75095 2.63555,0.49443 5.58326,1.20263 6.55047,1.57379 2.4306,0.93271 14.67517,-9.84464 17.41873,-15.33152 1.73751,-3.47485 1.87522,-4.73215 0.60432,-5.5176 -0.90528,-0.55949 -1.24224,-1.67049 -0.7488,-2.46889 0.49344,-0.79842 0.28962,-3.7155 -0.45296,-6.48242 -0.74257,-2.76692 -1.61528,-9.10404 -1.93936,-14.08249 -0.32406,-4.97845 -1.18156,-9.77845 -1.90552,-10.66667 -1.10025,-1.34986 -1.54904,-6.86413 -1.92194,-23.61493 -0.0245,-1.1 0.25856,-3.5 0.629,-5.33333 3.1747,-15.71187 4.06668,-25.47224 2.61833,-28.651021 C 171.76131,92.424306 162.94093,92.254215 148,98.82993 c -7.81119,3.43781 -25.13663,15.42149 -29.11853,20.14074 -1.71518,2.0328 -3.72055,3.69599 -4.45636,3.69599 -2.19874,0 -7.74488,4.90246 -6.71323,5.93411 0.52513,0.52513 0.27074,0.75478 -0.56532,0.51034 -0.83605,-0.24445 -5.03605,2.90888 -9.333329,7.00739 -4.297278,4.09852 -9.013231,8.0893 -10.479898,8.86842 -7.298702,3.87714 -27.980788,3.50848 -32.060769,-0.5715 -2.868868,-2.86886 -12.16144,-4.7249 -18.388639,-3.67282 -3.911146,0.66077 -4.971392,0.47761 -4.225096,-0.72992 0.762375,-1.23355 0.352976,-1.26776 -1.743604,-0.14571 -3.470336,1.85727 -13.581892,1.92103 -13.581892,0.0856 0,-0.75939 2.66268,-2.52207 5.917068,-3.91707 3.254388,-1.39498 7.154388,-3.77367 8.666667,-5.28594 1.512279,-1.51228 4.099599,-2.76869 5.749599,-2.79201 1.65,-0.0233 4.191461,-0.9429 5.647693,-2.04352 5.536836,-4.18472 19.917523,-7.47492 37.352307,-8.54594 18.089433,-1.11124 27.518783,-3.88603 36.405983,-10.71327 23.81328,-18.293611 39.43332,-27.244278 50.33455,-28.842935 9.77733,-1.43384 26.87527,-7.177408 29.28153,-9.836312 1.31518,-1.453254 3.3574,-2.642281 4.53828,-2.642281 1.18088,0 5.84047,-3.514543 10.35466,-7.810094 15.36052,-14.616578 38.13917,-27.154259 56.20992,-30.938703 7.32689,-1.534429 10.69626,-1.182214 31.54174,3.297191 5.13334,1.103083 15.03334,2.3767 22,2.83026 6.96667,0.453561 15.66667,1.136369 19.33334,1.517351 3.66666,0.380981 8.16666,0.794424 10,0.918761 1.83333,0.124333 3.93333,0.574056 4.66666,0.999375 0.73334,0.425317 15.63067,0.848669 33.10519,0.94078 l 31.77187,0.167473 12.80022,-4.100277 c 7.04012,-2.255154 15.14651,-5.652972 18.01418,-7.550708 2.86768,-1.897736 6.51024,-3.628775 8.09458,-3.846755 6.46804,-0.889894 46.86951,-0.19064 47.51619,0.822392 0.38377,0.601175 3.31543,1.530694 6.5148,2.065599 3.19936,0.534905 9.07337,2.463362 13.05336,4.285462 3.97999,1.822099 8.06847,2.993594 9.08549,2.603322 1.01704,-0.390272 2.561,0.148144 3.43104,1.196478 0.87004,1.048336 2.0949,1.589014 2.72191,1.201506 1.44909,-0.895598 12.63609,4.167708 17.88721,8.095873 2.20218,1.647362 5.27483,3.380162 6.82812,3.850665 1.55328,0.470504 3.87246,2.013825 5.15372,3.429604 2.03954,2.253665 2.57128,2.332427 4.27108,0.632628 3.25322,-3.253212 5.30615,-2.268327 12.64095,6.064439 3.87592,4.403274 8.15072,8.356218 9.49956,8.784321 1.34883,0.428102 4.44445,2.527404 6.87917,4.665112 2.43472,2.137709 6.4453,4.732373 8.91239,5.765921 7.0084,2.936044 10.73189,7.817145 11.97839,15.702397 0.684,4.326978 0.61038,7.506498 -0.1924,8.309274 -1.85151,1.851521 -1.61067,5.200511 0.69144,9.614611 1.09548,2.10049 1.99825,6.21907 2.00617,9.15241 0.0165,6.1397 5.21561,19.87726 9.25193,24.4466 1.51256,1.71229 2.75011,3.72649 2.75011,4.47598 0,0.7495 0.9,1.01736 2,0.59524 1.23989,-0.47578 2,0.007 2,1.26938 0,1.12026 0.6,1.66602 1.33333,1.2128 0.73334,-0.45323 1.33334,-0.29976 1.33334,0.34102 0,2.03515 9.23481,5.65958 14.37857,5.64323 2.72512,-0.009 9.75476,-1.20157 15.62143,-2.65092 12.73913,-3.14719 15.34941,-3.25719 18.72473,-0.78909 2.44804,1.79005 2.25612,2.1785 -4.11729,8.33333 -3.67676,3.55067 -8.91756,8.13133 -11.64623,10.17927 -2.72867,2.04793 -4.96121,4.64078 -4.96121,5.7619 0,2.4398 3.33832,6.06516 4.50793,4.89554 0.45397,-0.45396 0.8254,-0.12534 0.8254,0.73016 0,3.93304 43.14772,0.56053 57.46743,-4.49175 5.01001,-1.76764 5.94788,-1.77548 7.65933,-0.064 1.71144,1.71144 0.90472,2.95147 -6.58825,10.12691 -6.57748,6.29874 -12.24076,9.99193 -24.6585,16.08054 -8.866,4.34714 -17.06996,7.90388 -18.23104,7.90388 -1.16106,0 -3.81182,1.35 -5.89054,3 -2.07874,1.65 -4.95543,3.65319 -6.39266,4.45154 -2.3896,1.32736 -5.96622,6.19342 -8.24329,11.21513 -0.4988,1.1 -3.86477,5.45 -7.47995,9.66667 -6.29888,7.34688 -6.83884,7.66666 -12.94496,7.66666 -6.65485,0 -15.44254,-2.9016 -16.26558,-5.37072 -0.4326,-1.2978 -2.80255,-2.10458 -14.8314,-5.04893 -2.053,-0.50252 -3.67123,-1.40529 -3.59604,-2.00616 0.15018,-1.20044 -11.19066,-10.21863 -12.92456,-10.27756 -0.59399,-0.0201 -2.57999,-2.06141 -4.41332,-4.53605 -1.83334,-2.47463 -3.78334,-4.22271 -4.33334,-3.8846 -0.55,0.3381 -1,-0.0133 -1,-0.78056 0,-1.56182 -8.83937,-7.54622 -16.06805,-10.87832 -2.60409,-1.20039 -7.65351,-5.2653 -11.22089,-9.03314 -4.83655,-5.10833 -7.44731,-6.85065 -10.26528,-6.85065 -2.07851,0 -3.77911,-0.6 -3.77911,-1.33333 0,-2.22803 -3.78005,-1.5004 -8.65845,1.66666 -2.76762,1.79675 -5.47522,5.13911 -6.75068,8.33334 -1.17131,2.93333 -3.69947,6.98729 -5.61814,9.00878 -2.70256,2.84742 -3.13,4.03395 -1.89728,5.26667 0.87518,0.87517 1.59122,2.55896 1.59122,3.74176 0,1.1828 1.8,3.87505 4,5.98279 2.2,2.10773 4,4.3529 4,4.98928 0,0.63637 2.38982,4.67622 5.31073,8.97744 3.75256,5.52589 6.90228,8.5226 10.7352,10.21368 3.07371,1.35612 6.59751,4.2913 8.13133,6.77309 1.48879,2.40892 3.24255,4.37984 3.89724,4.37984 0.6547,0 2.04426,1.65126 3.08791,3.66946 1.56372,3.02392 3.62223,4.1111 11.70091,6.17972 14.65782,3.7533 24.12728,13.0547 20.77684,20.40812 -3.67007,8.05492 -17.63142,14.80206 -39.05376,18.87362 -9.79667,1.86197 -9.58446,1.86744 -14.74867,-0.38015 z m 24.41653,-4.66785 c 0.13984,-0.0456 -0.60646,-1.73292 -1.65845,-3.74959 -2.46869,-4.73247 -2.44469,-8.21919 0.0632,-9.18156 1.09579,-0.42049 1.69923,-1.23879 1.34099,-1.81844 -1.10687,-1.79095 3.38177,-2.73456 6.09658,-1.28164 1.41355,0.75651 2.57008,1.68976 2.57008,2.07391 0,0.38414 -0.63621,0.30524 -1.41381,-0.17534 -0.77759,-0.48058 -3.1714,-0.14577 -5.31956,0.74403 -3.31859,1.37461 -3.77997,2.14559 -3.06901,5.12843 1.65116,6.92749 5.49473,8.7081 10.54754,4.88634 1.4235,-1.07666 3.63818,-1.97666 4.92151,-2 1.43031,-0.026 2.33333,-1.07442 2.33333,-2.70906 0,-1.93464 0.8889,-2.66667 3.2381,-2.66667 4.06224,0 7.42857,-3.2652 7.42857,-7.20541 0,-4.0104 -8.83815,-11.03395 -17.00188,-13.51116 -7.10301,-2.15535 -14.54807,-2.54326 -15.22035,-0.793 -0.24444,0.63638 -1.94444,1.61078 -3.77777,2.16533 l -3.33333,1.00824 3.66666,-2.92877 c 4.33086,-3.4593 4.607,-5.98882 1.07871,-9.88063 -1.42337,-1.57003 -4.01524,-4.58928 -5.75971,-6.70945 -3.13672,-3.8123 -3.21145,-3.82883 -6.76808,-1.49844 -2.98637,1.95674 -3.46305,2.00909 -2.81053,0.30864 0.50479,-1.31546 -0.178,-2.35367 -1.90925,-2.90315 -1.48228,-0.47045 -2.40452,-1.61252 -2.0494,-2.53792 0.3551,-0.9254 -0.57552,-2.78766 -2.06804,-4.13838 -1.49254,-1.35072 -2.7137,-3.00476 -2.7137,-3.67564 0,-1.66158 -8.02794,-13.30192 -10.5954,-15.3631 -1.1392,-0.91457 -3.16866,-1.40834 -4.50992,-1.09729 -1.85094,0.42927 -2.21614,0.0267 -1.5154,-1.67048 2.58311,-6.25604 2.39863,-6.90272 -1.96913,-6.90272 -2.65251,0 -3.90673,-0.52983 -3.35759,-1.41837 0.59006,-0.95472 -0.80074,-1.16796 -4.25465,-0.65235 -3.77516,0.56359 -4.42649,0.43464 -2.46457,-0.48791 1.46666,-0.68966 4.2432,-1.29612 6.17008,-1.34765 4.49914,-0.1204 7.75878,-3.58035 4.23405,-4.49432 -1.32299,-0.34305 -0.45543,-0.69295 1.9292,-0.77807 2.89423,-0.10333 4.33333,-0.81886 4.33333,-2.15466 0,-1.1 0.48968,-2 1.08818,-2 2.25145,0 8.25264,-15.71114 9.67657,-25.33334 0.81391,-5.5 1.78633,-11.91474 2.16095,-14.255 0.4137,-2.58454 -0.19638,-5.98697 -1.554,-8.66666 -1.22932,-2.42642 -3.17842,-7.11167 -4.33135,-10.41167 -1.8984,-5.43373 -2.53032,-8.51601 -3.41693,-16.66667 -0.15955,-1.46666 -1.19008,-3.07449 -2.29008,-3.57295 -1.58327,-0.71745 -1.48143,-0.92581 0.48877,-1 1.91241,-0.072 2.34299,-0.85631 1.85927,-3.3867 -0.34622,-1.81114 -0.11614,-2.97573 0.51124,-2.58797 0.6274,0.38775 1.14072,3.92052 1.14072,7.8506 0,3.93007 0.36418,8.09466 0.80932,9.25464 1.2456,3.24598 3.19068,2.49965 3.19068,-1.22428 0,-1.83334 0.6,-3.33334 1.33333,-3.33334 0.73333,0 1.33333,2.36459 1.33333,5.25465 0,2.89005 -0.6,5.62546 -1.33333,6.07869 -0.73333,0.45322 -1.32415,1.83864 -1.31292,3.07869 0.0161,1.77893 0.26301,1.87176 1.17019,0.43995 0.81573,-1.28751 1.36241,-0.51282 1.88176,2.66666 0.4026,2.46475 1.5853,7.45339 2.62825,11.08586 1.29872,4.52337 1.534,8.09458 0.74667,11.33333 -3.15315,12.97065 -3.16778,12.52611 0.35557,10.80771 3.08307,-1.50367 3.102,-1.48327 0.53048,0.57164 -1.46667,1.17202 -2.66667,2.65512 -2.66667,3.29577 0,0.64065 -0.45,1.61483 -1,2.16483 -0.55,0.55 -1,1.47209 -1,2.0491 0,1.21962 8.17282,-2.8525 9.68764,-4.82688 0.56264,-0.73333 0.75272,-5.98342 0.4224,-11.66688 -0.54277,-9.33872 -0.34134,-10.47229 2.09222,-11.77469 3.34998,-1.79287 4.7404,-0.63416 2.49116,2.07601 -0.9866,1.18878 -1.11727,2.03223 -0.31483,2.03223 0.75447,0 1.06107,1.35 0.68132,3 -0.63111,2.74215 -0.39117,2.66701 2.79149,-0.87405 4.14132,-4.6077 4.61563,-3.55138 0.75191,1.67458 -2.28652,3.0927 -2.49473,4.31143 -1.28167,7.50206 1.11224,2.92541 1.04959,4.05813 -0.26997,4.88088 -1.27323,0.79386 -0.55775,2.20402 2.76215,5.44396 3.27238,3.19357 4.08129,3.58729 3,1.46022 C 566.35587,180.89725 566.29667,180 567.85545,180 c 0.65384,0 1.57143,1.52453 2.0391,3.38786 0.52173,2.07876 1.43796,3.02467 2.37113,2.44794 1.02371,-0.63268 1.22392,-0.1662 0.61249,1.42713 -0.75762,1.97435 -0.37334,2.23279 2.31623,1.55775 6.27063,-1.57383 6.77435,-1.61354 3.8056,-0.29996 -3.09753,1.37054 -4.06755,3.47928 -1.60045,3.47928 0.76974,0 3.31974,-0.92904 5.66666,-2.06455 3.17431,-1.53581 3.66956,-1.58353 1.93379,-0.18635 -1.28333,1.03302 -2.33333,2.26207 -2.33333,2.73122 0,0.46916 1.05,0.89518 2.33333,0.94673 1.99525,0.0801 1.94696,0.25975 -0.33333,1.23961 -1.46667,0.63026 -3.56667,1.1789 -4.66667,1.2192 -1.77777,0.0652 -1.77777,-0.0703 0,-1.2192 2.59944,-1.67988 1.08808,-1.68101 -3.32676,-0.003 -1.92521,0.73196 -3.14505,1.90574 -2.71077,2.60842 0.43428,0.70268 1.61221,0.96194 2.61762,0.57612 1.00543,-0.38581 4.26231,0.54039 7.23752,2.05824 2.97522,1.51784 7.98339,2.80844 11.12927,2.868 l 5.71979,0.10827 -4,1.95368 -4,1.95368 4.66666,-0.70579 c 3.96635,-0.59988 4.26648,-0.47962 2,0.80134 -1.46666,0.8289 -2.86666,1.66862 -3.1111,1.86604 -0.24446,0.1974 0.7167,1.52006 2.13589,2.93925 2.55157,2.55157 2.59845,2.55137 4.20349,-0.0187 2.2291,-3.56934 3.37646,-1.9746 1.3524,1.87974 -1.59069,3.02912 -1.56345,3.05045 0.99696,0.78086 3.0956,-2.74397 5.40979,-3.12968 3.26386,-0.54398 -1.8791,2.26417 -0.319,3.99016 1.92404,2.1286 1.26462,-1.04955 2.0992,-0.2262 3.39053,3.3449 0.94213,2.60543 2.52784,4.73715 3.52381,4.73715 0.99596,0 1.44002,0.6 0.98679,1.33333 -0.45323,0.73334 -0.29671,1.33334 0.34783,1.33334 0.64453,0 3.18801,1.8 5.65217,4 2.7302,2.43752 5.94747,4 8.23631,4 2.4198,0 5.59362,1.66017 8.92145,4.66666 2.84099,2.56667 5.86155,4.66667 6.71236,4.66667 3.11231,0 2.90168,-3.88644 -0.50293,-9.27969 -2.70832,-4.29028 -4.0702,-5.34355 -6.08311,-4.70468 -3.60359,1.14373 -5.83792,-0.4084 -3.91801,-2.72175 1.6727,-2.01547 4.23136,-1.39575 9.60452,2.32627 3.2814,2.27305 5.96141,6.66885 8.21342,13.47178 0.58343,1.76244 1.5724,2.18103 3.61862,1.53159 3.65318,-1.15948 7.86404,-4.78837 7.86404,-6.77719 0,-0.85857 0.81221,-1.8727 1.8049,-2.25364 0.9927,-0.38093 3.45492,-3.59512 5.4716,-7.14265 5.04815,-8.88015 16.03148,-19.11332 20.53122,-19.12895 1.93909,-0.007 10.12561,-3.20601 18.19228,-7.1095 10.9843,-5.31535 16.62716,-9.0148 22.47522,-14.73475 8.16507,-7.98619 9.05303,-10.35176 2.64868,-7.05631 -5.11148,2.63019 -21.83516,5.79204 -40.45724,7.64904 -8.43333,0.84098 -15.58333,1.76935 -15.88889,2.06307 -0.30555,0.29372 0.17985,0.53403 1.07869,0.53403 0.89884,0 1.27742,0.57737 0.84128,1.28305 -1.26148,2.04111 -7.60008,-1.4124 -6.73414,-3.669 0.51458,-1.34096 0.0848,-1.66211 -1.44092,-1.07663 -1.74331,0.66896 -2.046,0.16358 -1.52727,-2.55004 0.35583,-1.8614 0.16431,-3.68266 -0.4256,-4.04725 -0.58991,-0.36457 -0.82499,-2.00025 -0.52239,-3.63484 0.54976,-2.96967 2.66714,-5.12892 14.47678,-14.76316 3.45492,-2.81851 6.04366,-5.81851 5.75278,-6.66667 -0.61396,-1.79022 -10.70258,-1.27013 -11.38809,0.58708 -0.24445,0.66227 -2.12117,1.20412 -4.17051,1.20412 -2.04933,0 -5.80478,0.86855 -8.34546,1.93011 -2.54068,1.06157 -5.91395,1.59159 -7.49616,1.17783 -2.07071,-0.54135 -2.87676,-0.14818 -2.87676,1.40337 0,2.84089 -1.60463,2.72273 -5.18415,-0.38177 -2.04696,-1.77532 -2.40853,-2.71094 -1.20401,-3.11552 0.94682,-0.31803 -0.42954,-1.29012 -3.05858,-2.16022 -2.62904,-0.87008 -6.4913,-3.36809 -8.5828,-5.55114 -2.09149,-2.18304 -4.59045,-3.96918 -5.55325,-3.96918 -0.9628,0 -1.75055,-1.08 -1.75055,-2.4 0,-1.32 -0.5181,-2.97 -1.15136,-3.66666 -3.81124,-4.19292 -8.08041,-23.10995 -9.01213,-39.93334 -1.0982,-19.829336 -4.24559,-24.391174 -12.46885,-18.072403 -3.14482,2.416483 -3.19155,2.653697 -1,5.07534 3.0143,3.33077 3.12146,13.070963 0.16202,14.727143 -3.06938,1.71772 -1.76086,6.00221 2.14399,7.02004 3.32619,0.867 3.32616,0.86708 -0.67367,1.83649 -2.2,0.5332 -4.75,1.20051 -5.66666,1.48291 C 604.63749,113.05324 604,111.96056 604,109.87946 c 0,-1.90726 0.57877,-3.01247 1.33333,-2.54613 0.73846,0.45639 1.35226,-0.54955 1.37574,-2.25464 0.0233,-1.69328 0.92333,-4.24337 2,-5.666865 3.29416,-4.355256 3.77248,-3.337391 -14.56016,-30.984012 -4.4636,-6.731368 -8.32084,-12.033665 -8.57162,-11.782883 -0.25078,0.250782 1.69174,4.921223 4.31671,10.378761 2.62496,5.457536 4.77267,10.473126 4.77267,11.145758 0,0.672631 1.79016,3.394748 3.97814,6.049148 4.17275,5.062271 7.26639,11.647984 6.04526,12.869116 -1.83031,1.830297 -16.15538,-15.416103 -16.40824,-19.754381 -0.29947,-5.137817 -0.92584,-8 -1.75075,-8 -0.4958,0 -0.84057,-0.75 -0.76617,-1.666667 0.21386,-2.634864 -4.58266,-12.999999 -6.0158,-12.999999 -1.41258,0 -0.33038,14.868957 1.63837,22.510498 1.8388,7.137178 7.63053,14.407123 13.27787,16.666738 2.80932,1.124064 5.49004,2.662157 5.95716,3.417985 0.52432,0.848367 -0.0311,1.036391 -1.4514,0.49136 -1.7516,-0.67215 -2.09979,-0.359234 -1.45886,1.311038 0.46304,1.206655 0.22368,3.967295 -0.5319,6.134755 -1.58218,4.53865 -6.49774,6.69394 -12.51368,5.48681 l -4,-0.80262 3.72798,-0.98241 c 2.05039,-0.54032 4.16716,-0.71098 4.70395,-0.37923 0.53677,0.33175 2.40284,-0.47312 4.1468,-1.7886 3.90417,-2.94492 2.89624,-6.732992 -1.79153,-6.732992 -1.81307,0 -3.66731,-0.6 -4.12054,-1.333333 -0.45322,-0.733334 -2.25322,-1.333334 -4,-1.333334 -1.74677,0 -3.54677,-0.6 -4,-1.333333 -0.45322,-0.733333 -1.98864,-1.333333 -3.41202,-1.333333 -1.5597,0 -2.60483,-0.927103 -2.63038,-2.333334 -0.0233,-1.283333 -0.9041,-3.471726 -1.95729,-4.863095 -2.27989,-3.011974 -1.44877,-5.019884 1.59445,-3.852087 1.3917,0.534043 1.84906,0.305968 1.26888,-0.632768 -0.49892,-0.807283 -0.20464,-1.901951 0.65396,-2.432596 0.97496,-0.602564 1.2039,-0.386851 0.60972,0.574536 -0.52325,0.846639 -0.24249,1.539344 0.62392,1.539344 1.1739,0 1.15235,0.5096 -0.0845,2 -1.09491,1.319288 -1.16472,2 -0.20511,2 0.82971,0 1.07904,1.002521 0.58028,2.333333 -0.77437,2.066271 -0.60974,2.117893 1.4383,0.451028 1.27201,-1.035268 1.83436,-2.235268 1.24964,-2.666666 -1.36696,-1.008546 -1.71622,-3.515316 -2.5235,-18.112911 -0.36486,-6.597369 -1.20589,-12.537729 -1.86896,-13.200801 -4.81464,-4.81459 -25.03336,-14.627865 -35.98596,-17.465967 -4.67188,-1.210607 -11.36722,-3.65691 -14.87854,-5.436226 -3.51131,-1.779317 -8.58454,-3.235122 -11.27384,-3.235122 -5.17774,0 -14.8511,-2.372638 -17.36738,-4.259788 -0.82593,-0.619429 -6.52593,-1.145665 -12.66666,-1.169416 -6.14074,-0.02375 -13.27598,-0.08031 -15.8561,-0.12568 -5.03605,-0.08856 -17.7134,5.154998 -16.64453,6.88446 0.68764,1.112625 -8.10711,3.32802 -11.13148,2.804018 -0.99027,-0.17157 -1.47123,0.22079 -1.06881,0.871911 0.40242,0.651123 -2.20368,2.239397 -5.79135,3.5295 -5.6264,2.023228 -11.24133,2.328668 -40.85,2.222149 -18.87984,-0.06792 -36.46352,-0.6665 -39.07485,-1.330174 -2.61132,-0.663674 -12.24786,-1.884183 -21.41452,-2.712242 -32.37267,-2.924344 -40.99762,-4.047928 -46.80146,-6.096892 -6.36585,-2.247373 -12.05468,-1.840421 -23.19854,1.659512 -19.67459,6.179162 -45.99308,24.077377 -56.44968,38.389308 -1.60738,2.2 -2.76375,3.175 -2.56974,2.166666 0.66559,-3.459214 -2.52093,-2.90271 -4.17577,0.72927 -1.19963,2.632893 -1.94924,3.155075 -2.72571,1.898733 -0.81472,-1.318253 -1.55638,-1.039944 -3.09942,1.163068 -1.11564,1.592794 -2.24247,2.267093 -2.50406,1.498442 -0.31052,-0.912412 -4.17838,-0.4875 -11.14229,1.22406 -5.86667,1.441884 -11.61021,2.628692 -12.76344,2.637351 -4.47535,0.0336 -27.44461,12.502981 -36.60389,19.871241 -14.09326,11.33744 -24.13565,16.99554 -34.382074,19.37161 -9.850456,2.28425 -17.220069,2.81875 -12.287867,0.89121 2.316606,-0.90535 2.167496,-1.11589 -1.253433,-1.76984 -5.704072,-1.0904 -20.192689,1.2861 -26.528887,4.35141 -3.032558,1.46709 -4.313742,2.31777 -2.847076,1.8904 C 52.8,125.49625 55.8,124.87589 58,124.54505 c 2.690433,-0.40459 2.097132,0.0305 -1.812207,1.32902 -3.196713,1.06179 -6.496713,1.68092 -7.333333,1.37582 -0.83662,-0.30509 -3.921127,0.31254 -6.85446,1.37251 -2.933333,1.05997 -4.433333,1.99158 -3.333333,2.07025 1.196737,0.0856 0.795106,0.62735 -1,1.3489 C 33.682964,133.6428 33.840473,136 37.931171,136 c 1.795477,0 8.16417,1.5478 14.152652,3.43956 10.594682,3.34686 17.24951,3.48897 17.24951,0.36837 0,-0.87671 -1.4867,-1.21212 -3.666666,-0.82723 -2.016667,0.35606 -5.166667,0.19087 -7,-0.36709 -1.833334,-0.55796 -2.583334,-1.07428 -1.666667,-1.14737 2.828288,-0.22554 1.8365,-2.79958 -1.078689,-2.79958 -1.509946,0 -2.378783,0.59314 -1.93075,1.31807 0.85609,1.38517 -2.938456,0.38928 -5.323894,-1.39729 -0.733334,-0.54923 -2.833334,-1.31547 -4.666667,-1.70276 -1.833333,-0.38729 -0.933333,-0.44558 2,-0.12953 2.933333,0.31605 6.233333,0.6322 7.333333,0.70258 1.1,0.0704 5.816586,0.6933 10.481302,1.38432 7.109077,1.05312 10.34496,0.7923 20,-1.61196 12.057249,-3.00247 15.536321,-4.3783 18.852035,-7.45523 2.67498,-2.48235 7.10443,-5.99461 10.64594,-8.44153 5.46684,-3.77719 20.689,-14.68064 23.35406,-16.72823 1.46666,-1.126858 4.01666,-2.389038 5.66666,-2.804845 1.65,-0.415806 3,-1.237444 3,-1.82586 0,-1.670925 11.8152,-6.974397 15.53772,-6.974397 1.83731,0 3.68944,-0.90918 4.11586,-2.020398 0.65656,-1.710972 1.00033,-1.736498 2.24468,-0.166667 0.80814,1.019552 3.26165,2.841645 5.45222,4.049095 2.19058,1.207449 4.57514,3.457449 5.29903,4.999999 1.658,3.533046 3.35049,3.618268 3.35049,0.168708 0,-1.449761 -1.49485,-3.615392 -3.32188,-4.812512 -3.86448,-2.532105 -3.16654,-5.263573 0.8022,-3.139559 4.14991,2.22096 5.9189,7.253001 4.01711,11.426969 -2.57359,5.648417 -0.97844,4.921407 3.66924,-1.672302 4.98541,-7.072853 7.20039,-6.935499 2.99863,0.18595 -1.55758,2.639899 -2.83196,5.646679 -2.83196,6.681749 0,1.04632 -0.81166,1.57048 -1.82795,1.18049 -1.00536,-0.38579 -2.21217,0.29984 -2.68179,1.52364 -0.65072,1.69574 -0.31293,2.01752 1.41986,1.35258 2.00552,-0.76959 1.98205,-0.55023 -0.19892,1.85972 -1.35995,1.50272 -2.17263,3.03222 -1.80596,3.39889 0.36666,0.36666 1.75597,-0.53701 3.08736,-2.00818 1.33138,-1.47116 2.85712,-2.67484 3.39052,-2.67484 0.5334,0 -1.42556,2.39538 -4.35324,5.32306 -3.56339,3.56338 -5.04662,6.04348 -4.4868,7.50234 0.45994,1.19859 0.0988,3.15321 -0.80248,4.3436 -0.90132,1.19038 0.37913,0.36433 2.84545,-1.83567 l 4.4842,-4 -3.02548,4.20658 c -1.66403,2.31362 -2.62709,4.85122 -2.14015,5.63911 0.48695,0.7879 0.18235,2.79494 -0.67688,4.46009 -1.1818,2.2903 -0.3851,1.90864 3.27168,-1.56734 2.65866,-2.52718 4.83391,-3.98177 4.83391,-3.23241 0,0.74936 -1.55509,2.81706 -3.45576,4.59489 -1.90067,1.77783 -4.07411,4.43242 -4.82985,5.89908 -0.77186,1.49792 1.17729,0.32918 4.44728,-2.66666 3.94564,-3.61486 4.72089,-4.04447 2.40604,-1.33334 -3.88595,4.55118 -7.90104,10.76294 -7.90104,12.22368 0,0.54131 2.49438,-1.38758 5.54309,-4.28641 l 5.54309,-5.2706 -3.70134,5 c -4.14303,5.59667 -3.2877,6.54703 1.80001,2 1.8462,-1.65 0.83488,-0.0655 -2.2474,3.52105 -7.24455,8.42988 -7.21819,10.85958 0.0443,4.08288 3.10662,-2.89882 4.38604,-3.7706 2.84313,-1.93726 -1.54291,1.83333 -3.89719,5.13333 -5.23172,7.33333 l -2.42643,4 L 185.48015,159 c 5.6521,-5.27086 8.33524,-5.76222 3.64042,-0.66667 -6.36982,6.91353 -10.63762,15.02544 -5.78726,11 1.1,-0.91292 2,-2.45236 2,-3.42099 0,-1.88848 5.03317,-5.93878 7.29668,-5.8718 0.75349,0.0223 0.31998,0.65211 -0.96335,1.39959 -4.73527,2.75804 -2.15424,3.85603 2.94688,1.25363 6.42321,-3.27688 6.10872,-3.27246 6.34851,-0.0892 0.11133,1.47781 -0.86628,2.94182 -2.25975,3.38409 -1.35077,0.42872 -2.80761,1.69588 -3.23741,2.81592 -0.60515,1.57701 -0.10654,1.852 2.21016,1.21891 2.61157,-0.71367 2.69162,-0.62964 0.63024,0.66142 -1.29876,0.81343 -2.09359,1.91224 -1.7663,2.44183 0.32731,0.52959 -0.87418,0.94271 -2.66997,0.91805 -2.32285,-0.0319 -4.0914,1.30187 -6.12852,4.62184 l -2.86344,4.66667 2.94675,-3 c 3.75528,-3.82316 4.73329,-3.82316 2.58161,0 -1.67228,2.97136 -2.57197,7.66667 -1.46905,7.66667 0.31474,0 1.88282,-0.6331 3.48461,-1.4069 2.8604,-1.38178 2.86477,-1.36885 0.24568,0.72474 -1.46667,1.1724 -3.86667,2.97402 -5.33333,4.00362 -2.65626,1.86468 -2.65595,1.87227 0.0785,1.94194 1.50984,0.0385 3.90984,-0.81099 5.33333,-1.88767 1.4235,-1.07667 3.18818,-1.96656 3.92151,-1.97753 0.73333,-0.0107 -0.61667,1.22886 -3,2.7552 -4.70943,3.01598 -5.06341,3.99108 -2.9098,8.01513 1.37833,2.57544 1.29576,2.59383 -2.60045,0.57901 -4.12807,-2.13469 -7.20658,-2.81158 -4.82308,-1.06046 0.73333,0.53877 2.53333,2.45604 4,4.26058 l 2.66666,3.281 -3.61976,-2.281 c -4.02542,-2.53658 -7.71358,-2.9897 -7.71358,-0.94762 0,0.73333 0.6,1.33333 1.33333,1.33333 0.73333,0 1.33333,0.72 1.33333,1.6 0,1.24444 -0.35556,1.24444 -1.6,0 -2.49145,-2.49145 -4.16048,-1.9648 -10.22548,3.22661 -5.0093,4.28778 -6.21505,4.73446 -10.8007,4.00119 -6.78202,-1.08449 -8.65966,-0.22169 -12.24035,5.6246 -5.28261,8.62508 -6.4668,11.13379 -6.4668,13.70001 0,1.38284 -1.2,3.71426 -2.66667,5.18092 l -2.66666,2.66667 h 2.74536 c 1.50994,0 2.48666,-0.45 2.1705,-1 -0.31617,-0.55 0.62494,-2.2 2.09136,-3.66667 2.66612,-2.66657 2.66618,-2.66649 1.71932,2.59858 -1.0002,5.56164 -3.76142,10.58877 -5.0876,9.26258 -0.4337,-0.43369 -0.48898,-1.56918 -0.1228,-2.52332 0.90547,-2.35958 -2.05696,-3.99697 -3.89893,-2.155 -1.08955,1.08955 -1.03777,1.48383 0.19487,1.48383 0.92328,0 1.33349,0.55855 0.91158,1.2412 -0.42192,0.68267 -0.15732,1.61808 0.58798,2.07869 2.19534,1.3568 1.62505,5.06901 -0.64492,4.19793 -2.87825,-1.10448 -2.46081,0.82831 0.77781,3.6013 1.58943,1.36092 2.44505,3.24558 2,4.40537 -0.4278,1.11481 -0.77781,3.21328 -0.77781,4.66324 0,1.44997 -0.58035,2.27764 -1.28967,1.83925 -0.70931,-0.43837 -0.93431,-2.57378 -0.5,-4.74534 0.51941,-2.59703 0.24937,-3.94831 -0.78903,-3.94831 -0.86828,0 -1.20786,-0.6 -0.75464,-1.33333 0.45323,-0.73334 0.21846,-1.33334 -0.52172,-1.33334 -0.74017,0 -1.93523,1.05 -2.65569,2.33334 -1.43116,2.54929 -1.18425,2.86276 -3.47984,-4.41784 -0.36148,-1.14648 -1.27127,-1.70503 -2.02175,-1.2412 -0.75047,0.46381 -0.962,1.49454 -0.47007,2.29052 0.53384,0.86376 0.27384,1.06366 -0.64492,0.49584 -0.84669,-0.52326 -1.53939,-1.81596 -1.53939,-2.87268 0,-2.95496 -2.1856,-2.3017 -6.53988,1.95474 -4.04321,3.95236 -4.6625,6.32304 -6.22337,23.82319 l -0.62725,7.03257 3.69525,-0.70721 3.69525,-0.70721 -3.52513,1.40524 c -2.2461,0.89537 -3.36373,2.22864 -3.0803,3.67464 0.24464,1.24817 0.76656,3.81653 1.15982,5.70748 0.8484,4.07952 6.31288,7.16132 8.61538,4.85881 0.82329,-0.82329 1.49689,-2.89189 1.49689,-4.59689 0,-2.42148 -0.93481,-3.28696 -4.27092,-3.95419 -3.60329,-0.72065 -3.86383,-1.00389 -1.66667,-1.81188 3.46102,-1.27277 8.93603,3.58695 7.86013,6.97679 -0.4229,1.33244 -0.47754,2.42261 -0.12144,2.42261 2.9249,0 6.10944,-3.27423 12.81362,-13.17447 4.2802,-6.3207 10.0929,-13.95069 12.91707,-16.95552 2.82419,-3.00481 6.78828,-7.30453 8.80909,-9.5549 3.77806,-4.20724 20.52195,-13.95008 26.37135,-15.34481 7.86713,-1.87584 16.02055,-5.43863 15.56612,-6.80192 -0.27149,-0.81447 0.75481,-2.20424 2.28068,-3.08838 8.57763,-4.97017 14.43596,-7.30516 16.78616,-6.69057 1.79593,0.46965 2.65481,0.0348 2.65481,-1.34417 0,-1.74687 0.32268,-1.7767 2.25595,-0.20851 1.86833,1.51551 2.06873,1.51901 1.16636,0.0204 -0.84233,-1.39891 -0.40869,-1.59341 1.91103,-0.85716 2.24828,0.71357 2.73676,0.52543 1.94824,-0.7504 -0.74582,-1.20677 -0.41339,-1.45757 1.14122,-0.86101 1.51211,0.58025 3.96183,-1.04174 7.88539,-5.221 6.75237,-7.19243 7.91883,-9.00992 9.73453,-15.16759 0.75683,-2.56667 1.95683,-4.56769 2.66667,-4.44672 0.70984,0.12093 2.04061,-0.40249 2.95728,-1.16325 1.96687,-1.63236 2.26451,-4.25023 0.3486,-3.06614 -0.75581,0.46712 -0.97933,-0.0681 -0.52401,-1.25464 0.43673,-1.13809 1.315,-2.06925 1.95173,-2.06925 0.63672,0 0.56903,-1.65 -0.15043,-3.66667 -1.22416,-3.43136 -1.17925,-3.50057 0.69967,-1.07849 2.32019,2.99089 2.69408,0.64132 0.58496,-3.67583 -1.21499,-2.48693 -1.02456,-2.42544 1.30368,0.42099 2.28877,2.79819 2.73127,2.94809 2.75615,0.93379 0.0163,-1.31975 -0.88576,-4.16975 -2.00459,-6.33334 -2.79255,-5.4002 -1.48283,-4.95786 1.99843,0.67495 2.59465,4.19824 2.6765,4.93672 0.91889,8.29125 -1.71904,3.2809 -1.69064,3.8764 0.26039,5.46031 1.95582,1.58779 1.88124,1.69336 -0.69792,0.98784 -1.61919,-0.44292 -3.32046,-0.0899 -3.87268,0.80364 -0.5998,0.97049 -0.41903,1.24385 0.46232,0.69916 0.79597,-0.49193 1.78338,-0.35049 2.19425,0.31431 0.41088,0.66481 -1.31057,2.18514 -3.82545,3.37853 -4.10642,1.94863 -7.32542,6.64592 -5.68115,8.29017 0.34813,0.34814 2.65292,-1.21345 5.12173,-3.47021 5.27815,-4.8248 12.89988,-7.26149 17.37843,-5.55595 1.71068,0.65148 5.51033,1.91419 8.44367,2.80602 3.26952,0.99404 7.25276,3.76878 10.29354,7.17052 2.72812,3.05196 4.97812,5.11989 5,4.59541 0.0219,-0.52449 -1.89021,-3.15176 -4.24909,-5.83837 -2.35888,-2.68663 -4.48316,-6.33547 -4.7206,-8.10854 -0.41856,-3.12546 -0.31828,-3.16437 3.28888,-1.27628 2.04633,1.07111 5.6706,3.87027 8.05393,6.22035 2.38334,2.35007 4.33334,3.67513 4.33334,2.94457 0,-0.73054 -0.9,-2.07521 -2,-2.98813 -1.1,-0.91292 -2,-2.27937 -2,-3.03657 0,-2.04966 5.32686,3.15649 7.46984,7.30054 2.43846,4.71548 2.37969,6.25459 -0.11427,2.99087 -1.48783,-1.94708 -1.40527,-1.18791 0.33333,3.06493 1.27107,3.10922 2.76104,5.65922 3.31104,5.66667 1.78964,0.0243 1.05338,-8.73953 -0.9576,-11.39827 -2.25725,-2.98436 -2.6511,-5.12174 -0.72433,-3.93094 0.75581,0.46712 0.97933,-0.0681 0.52401,-1.25464 -0.43668,-1.13808 -0.4465,-2.06924 -0.0218,-2.06924 0.42472,0 2.58892,3.66157 4.80932,8.13682 3.94218,7.94554 5.28985,11.86486 2.70377,7.86318 -1.10457,-1.7092 -1.29547,-1.66074 -1.31292,0.33333 -0.0107,1.28333 -0.77041,2.3614 -1.68708,2.39569 -0.91667,0.0343 1.29785,1.21979 4.92115,2.63442 7.27041,2.83853 8.79846,2.49588 6.35041,-1.42408 -0.95376,-1.52722 -1.07827,-2.60603 -0.30075,-2.60603 0.72971,0 2.20418,2.1 3.27659,4.66667 1.07243,2.56666 2.73048,4.71257 3.68456,4.76868 1.83808,0.10813 3.31747,0.39398 9.73471,1.88124 l 4,0.92702 -4,-2.77968 c -2.2,-1.52884 -4.63775,-2.78365 -5.41722,-2.78848 -1.78769,-0.0107 -7.25261,-5.91888 -11.10854,-12.00878 l -2.95479,-4.66667 3.0736,3.9052 c 6.57645,8.35579 10.22216,12.05737 11.05504,11.22449 0.47765,-0.47766 -1.27276,-3.8489 -3.88981,-7.49165 -2.61706,-3.64276 -4.75828,-7.09155 -4.75828,-7.664 0,-0.57244 1.87512,1.59921 4.16694,4.82591 5.08556,7.16005 11.94335,14.53338 13.51722,14.53338 0.63857,0 -1.00428,-2.64249 -3.65079,-5.8722 -2.64651,-3.2297 -7.09497,-9.04565 -9.88548,-12.92433 -5.00905,-6.96235 -5.16788,-7.05553 -12.47476,-7.31876 -8.33169,-0.30015 -9.00471,-0.59823 -17.03135,-7.54317 -6.86638,-5.94106 -6.46804,-7.78074 0.64027,-2.95692 8.26709,5.61021 6.68035,2.9637 -3.95012,-6.58827 -5.49923,-4.94132 -9.98525,-9.99195 -9.96895,-11.22361 0.0229,-1.7351 0.61682,-1.48875 2.63702,1.09393 3.41892,4.37084 3.35844,3.96875 -1.4035,-9.33024 -2.23134,-6.23163 -3.49162,-10.73163 -2.80062,-10 0.691,0.73163 2.81249,5.69628 4.71444,11.03256 1.90194,5.33628 4.31162,11.33628 5.35484,13.33333 2.76877,5.30031 12.38506,13.38551 20.8015,17.48952 l 3.33334,1.6254 -3.33334,-2.84716 C 306.18131,185.11128 301.35961,180.51558 301.34731,179.4 c -0.008,-0.69667 0.70602,-0.54667 1.58602,0.33333 3.7713,3.77129 3.27882,0.87704 -1.68922,-9.92737 -2.91526,-6.34006 -5.07928,-11.74858 -4.80894,-12.01892 0.27035,-0.27034 3.12315,5.36697 6.33955,12.52738 6.09359,13.56563 15.02471,24.45042 21.438,26.12754 2.24988,0.58836 1.4032,-0.62364 -3.16123,-4.52519 -5.53969,-4.73519 -14.45232,-17.62528 -14.34428,-20.74575 0.0223,-0.64406 0.72318,0.0289 1.55751,1.49564 4.27961,7.52311 7.99751,12.84888 8.57004,12.27635 0.35325,-0.35325 -0.58781,-2.65993 -2.09125,-5.12597 -1.50346,-2.46604 -2.72856,-5.08371 -2.72247,-5.81704 0.0151,-1.81575 6.85453,10.1585 7.23495,12.66666 0.16682,1.1 3.55248,4.2656 7.52366,7.03466 3.97119,2.76906 8.2772,5.91906 9.56892,7 2.73038,2.28485 5.55388,2.63156 4.25003,0.52188 -0.49065,-0.7939 0.94413,-0.4939 3.18844,0.66666 6.38664,3.30267 8.03275,2.47307 2.52247,-1.27126 -2.7369,-1.85978 -4.97618,-3.66439 -4.97618,-4.01026 0,-0.34586 2.94846,1.32222 6.55212,3.70684 7.17244,4.74618 6.56091,7.40943 -0.97805,4.25944 -5.82531,-2.43396 -6.30437,-2.39744 -4.07065,0.31034 1.6542,2.00528 1.55025,2.06929 -1.08243,0.66666 -3.71503,-1.97928 -3.97655,-1.95364 -3.97655,0.38972 0,1.06775 0.49526,1.63527 1.10056,1.26118 0.6053,-0.3741 2.1553,-0.0191 3.44444,0.78898 2.03102,1.27304 1.94344,1.35968 -0.6561,0.64898 -3.72459,-1.01828 -3.75912,-0.11827 -0.18788,4.89712 2.67004,3.74973 5.54913,4.47313 3.04454,0.76498 -0.65449,-0.96901 0.12427,-0.26844 1.73066,1.55683 1.60636,1.82528 2.6583,3.74316 2.33765,4.26197 -0.61447,0.99423 8.15119,9.22616 9.78809,9.19211 0.52448,-0.0107 -1.4464,-2.08837 -4.37973,-4.6166 -2.93333,-2.52823 -4.50987,-4.61929 -3.50341,-4.64683 1.50866,-0.0413 1.52805,-0.4597 0.1104,-2.3834 -0.94575,-1.28333 0.2112,-0.38333 2.57098,2 2.3598,2.38334 4.96288,4.33334 5.78464,4.33334 0.82175,0 2.44134,0.85325 3.59908,1.89612 2.8718,2.58686 9.43831,4.15114 9.43831,2.24842 0,-0.81284 -1.43511,-1.47788 -3.18913,-1.47788 -1.91419,0 -5.92674,-2.46134 -10.03703,-6.15685 -7.40772,-6.66017 -11.06088,-11.71459 -7.47136,-10.33716 1.11697,0.42863 2.05053,1.46512 2.07457,2.30333 0.0723,2.5169 11.9285,11.87844 15.74178,12.4295 1.9513,0.28197 9.33193,0.81082 16.40137,1.17521 10.43116,0.53767 14.07469,0.19749 19.33333,-1.80503 3.5639,-1.35716 7.47386,-2.24116 8.68882,-1.96445 1.21496,0.27671 2.56578,-0.0741 3.00184,-0.77971 0.45286,-0.73276 -0.35142,-0.98358 -1.87568,-0.58498 -4.00683,1.04781 -3.21158,-0.5972 1.4554,-3.0106 2.26814,-1.17291 3.80374,-2.45271 3.41244,-2.84402 -0.39131,-0.3913 -4.11914,1.2382 -8.28407,3.62114 -5.88955,3.36965 -9.61137,4.47846 -16.74577,4.98893 -5.30487,0.37956 -9.17318,0.1276 -9.17318,-0.59765 0,-0.6897 4.24808,-1.22031 9.44018,-1.17916 7.06778,0.056 9.83216,-0.44854 11,-2.00779 0.8579,-1.14545 2.75982,-2.56531 4.22649,-3.15524 4.23289,-1.70257 0.0679,-2.42363 -5.35332,-0.92676 -2.66508,0.73587 -5.70084,1.00975 -6.74615,0.60863 C 396.85524,216.04288 396,216.3789 396,217.19068 c 0,2.01328 -3.64412,1.87694 -4.32369,-0.16176 -0.30026,-0.90075 -1.84252,-1.65075 -3.42726,-1.66667 -4.69905,-0.0472 -3.00464,-2.57016 2.91604,-4.34201 6.64796,-1.9895 7.44134,-2.04416 4.83491,-0.33316 -1.77777,1.16704 -1.77777,1.4588 0,2.62584 1.1,0.7221 2.9,1.27473 4,1.22806 1.3622,-0.0577 1.46849,-0.2993 0.33333,-0.75736 -2.42133,-0.97702 -2.0416,-2.81826 0.76495,-3.70902 1.3374,-0.42447 3.59519,-1.81491 5.01732,-3.08986 1.42212,-1.27494 3.77789,-3.13405 5.23504,-4.13136 1.45715,-0.9973 0.0993,0.51906 -3.01731,3.36968 -3.11666,2.85064 -5.66666,5.61663 -5.66666,6.14663 0,2.71541 3.87212,-0.31485 17.23226,-13.48571 8.06135,-7.94714 14.23192,-13.69986 13.71238,-12.78384 -1.52084,2.68142 -9.89272,11.39546 -17.56015,18.2778 -6.70464,6.01815 -6.96313,6.48204 -4.58209,8.2231 2.7695,2.02512 4.92693,0.97508 7.36797,-3.58606 1.31943,-2.46537 1.25089,-2.47042 -2.40613,-0.17729 l -3.76424,2.36036 3.24405,-3.61141 c 2.07544,-2.31047 4.08445,-3.3447 5.57695,-2.87099 1.45618,0.46217 3.99473,-0.74444 6.75502,-3.21076 6.12192,-5.46993 3.90308,-6.68153 -2.43601,-1.33019 -5.01787,4.236 -4.99744,4.18336 0.85999,-2.21526 3.3,-3.6049 6.3,-6.87051 6.66666,-7.25691 4.26904,-4.49873 4.26619,-5.06779 -0.0828,-16.51699 -2.45644,-6.46681 -3.91158,-12.2769 -3.40524,-13.59642 1.1229,-2.9262 1.81291,-2.21519 2.69234,2.77425 0.88128,4.99989 6.23112,16.63663 7.64848,16.63663 0.58497,0 0.7156,0.9068 0.29029,2.01512 -0.55332,1.44193 -0.16215,1.78061 1.37519,1.19068 2.62249,-1.00635 2.64814,-1.67607 0.28253,-7.37631 -2.49304,-6.00731 -3.81097,-23.34855 -2.21639,-29.16283 1.0696,-3.89998 1.15626,-3.40712 0.52746,3 -0.44202,4.5039 -0.22742,7.66667 0.5202,7.66667 0.69993,0 1.16388,1.82781 1.03097,4.06181 -0.17525,2.94598 0.25839,3.86992 1.57855,3.36334 1.42544,-0.547 1.51772,-0.13334 0.4255,1.90748 -0.90258,1.6865 -0.94717,3.44005 -0.1264,4.97 3.97778,7.41444 6.88532,15.13542 6.14858,16.32752 -0.46566,0.75341 -0.17582,1.36985 0.64408,1.36985 0.81989,0 1.13694,0.57241 0.70456,1.27201 -0.43238,0.69962 -0.4077,2.7799 0.0549,4.62286 0.77745,3.09766 1.30944,3.30533 7.04079,2.74853 l 6.19978,-0.60231 -4.66666,1.59391 c -5.55516,1.89736 -9.16923,5.91907 -8.67998,9.65897 0.8505,6.50115 3.7544,15.27807 4.8341,14.61078 0.64856,-0.40084 1.17921,-0.0933 1.17921,0.68322 0,1.97592 4.50488,6.26882 6.77777,6.45884 1.0389,0.0868 3.9889,0.66946 6.55556,1.29466 4.50271,1.09678 4.54955,1.17054 1.33334,2.09918 l -3.33334,0.96246 3.33334,1.77728 c 1.83333,0.9775 5.22498,2.13513 7.537,2.57252 3.65988,0.69236 4.30996,0.37169 5.0254,-2.47884 0.7294,-2.90614 4.75142,-4.81818 4.78356,-2.27407 0.007,0.55 2.66754,2.16692 5.91244,3.59317 6.35057,2.7913 8.433,6.57258 5.32905,9.67651 -2.48047,2.48048 -2.44763,3.55112 0.0792,2.58148 1.24283,-0.47691 2,0.008 2,1.28053 0,1.48755 -0.78287,1.79953 -2.86069,1.14005 -2.49835,-0.79294 -2.62502,-0.65316 -1,1.10355 1.02338,1.10631 2.28629,1.75413 2.80645,1.43959 1.04856,-0.63404 5.91273,1.89404 8.84127,4.59513 1.03957,0.95884 2.71278,1.42767 3.71822,1.04185 1.02599,-0.3937 1.82808,0.13931 1.82808,1.2148 0,1.1556 0.79394,1.61164 2,1.14884 1.1,-0.42212 2,-0.0679 2,0.7872 0,0.85507 0.6,1.18386 1.33334,0.73063 0.73333,-0.45323 1.33333,0.13253 1.33333,1.30156 0,1.71243 0.51835,1.84819 2.66667,0.69844 1.57717,-0.84408 2.66666,-0.90864 2.66666,-0.15803 0,0.69803 -0.75,1.57178 -1.66666,1.94166 -0.99566,0.40176 -0.72726,0.71489 0.66666,0.77777 1.28334,0.0579 2.33334,0.72637 2.33334,1.48551 0,0.9502 0.80565,0.94908 2.58574,-0.004 2.75798,-1.47602 4.92863,0.17305 3.42667,2.60328 -0.48165,0.77933 0.70607,1.12034 2.92131,0.83878 2.05312,-0.26097 2.98294,-0.20793 2.06628,0.11787 -3.6192,1.28624 -1.3086,2.81515 5.91225,3.91211 6.75133,1.02562 7.35905,1.37038 5.56547,3.15729 -2.27466,2.26653 -4.34191,10.66109 -2.62538,10.66109 0.6155,0 1.98407,1.95 3.04127,4.33334 1.0572,2.38333 1.73607,3.52758 1.50857,2.5428 -0.22748,-0.9848 -0.71464,-3.3848 -1.08257,-5.33334 -0.60485,-3.20333 -0.52328,-3.15953 0.85139,0.4572 0.83618,2.2 2.11324,4.75 2.8379,5.66667 1.61883,2.04776 4.1636,2.23059 2.91444,0.20939 -0.49536,-0.80151 0.81923,-0.5173 2.92131,0.63157 3.00601,1.64292 10.9836,2.13459 14.74289,0.90863 z m -11.75768,-2.41626 c -1.65849,-2.11474 -1.61133,-2.1619 0.50342,-0.50341 2.221,1.74183 2.9273,2.83675 1.82992,2.83675 -0.27687,0 -1.32687,-1.05 -2.33334,-2.33334 z m -9.05798,-6.44444 c 0.064,-1.55326 0.37992,-1.8692 0.80554,-0.80556 0.38516,0.9625 0.3378,2.1125 -0.1052,2.55556 -0.44305,0.44306 -0.75818,-0.34445 -0.70029,-1.75 z m 37.90417,-4.54029 c -0.46712,-0.75581 0.0681,-0.97933 1.25464,-0.52401 2.30989,0.88638 2.73252,1.84208 0.81461,1.84208 -0.69005,0 -1.62122,-0.59314 -2.06925,-1.31807 z m -1.85477,-4.7486 c -0.16488,-2.91392 2.13441,-5.96092 4.44533,-5.89093 0.77,0.0233 0.42,0.78828 -0.77777,1.69992 -1.19778,0.91162 -2.47818,2.84254 -2.84534,4.29092 -0.64492,2.54412 -0.6728,2.54073 -0.82222,-0.0999 z m -472.10813,-3.26667 c 0.65722,-4.87897 -0.19838,-6.51478 -3.71321,-7.09921 -2.74,-0.45559 -2.48728,-0.56221 1,-0.42189 3.82571,0.15393 4.74708,0.7561 5.11289,3.34156 0.24542,1.73457 -0.25472,3.83457 -1.11143,4.66666 -1.16905,1.13544 -1.49044,1.01392 -1.28825,-0.48712 z M 560,273.33333 c 0,-0.73334 0.6,-1.33334 1.33333,-1.33334 0.73334,0 1.33334,0.6 1.33334,1.33334 0,0.73333 -0.6,1.33333 -1.33334,1.33333 -0.73333,0 -1.33333,-0.6 -1.33333,-1.33333 z m -16.25,-2.24415 c 0.96249,-0.38516 2.11251,-0.3378 2.55556,0.1052 0.44305,0.44305 -0.34445,0.75819 -1.75,0.70029 -1.55327,-0.064 -1.8692,-0.37992 -0.80556,-0.80554 z M 530,267.99999 c 0.45323,-0.73333 1.08864,-1.33333 1.41203,-1.33333 0.32338,0 0.58797,0.6 0.58797,1.33333 0,0.73334 -0.63541,1.33334 -1.41203,1.33334 -0.77661,0 -1.0412,-0.6 -0.58797,-1.33334 z m 0.77193,-10.1111 c 0.064,-1.55327 0.37992,-1.8692 0.80555,-0.80556 0.38516,0.96249 0.3378,2.11249 -0.1052,2.55556 -0.44305,0.44305 -0.75819,-0.34446 -0.70029,-1.75 z m -3.89474,-3.22223 c 0,-1.83333 0.30264,-2.58333 0.67252,-1.66667 0.36988,0.91667 0.36988,2.41667 0,3.33334 -0.36988,0.91666 -0.67252,0.16666 -0.67252,-1.66667 z m -4.87719,0 c -0.45323,-0.73333 -0.18864,-1.33333 0.58797,-1.33333 0.77662,0 1.41203,0.6 1.41203,1.33333 0,0.73333 -0.26459,1.33333 -0.58797,1.33333 -0.32339,0 -0.9588,-0.6 -1.41203,-1.33333 z m -16.66667,-1.06667 c 0,-0.58666 0.75,-1.82705 1.66667,-2.75642 1.33559,-1.3541 1.17988,-2.04923 -0.78383,-3.49932 -1.40744,-1.03933 -2.18268,-2.84559 -1.82133,-4.24357 0.60011,-2.32166 0.63629,-2.31971 0.78383,0.042 0.10146,1.62453 0.84242,2.21206 2.15466,1.7085 1.1,-0.4221 2.00919,-0.0363 2.02042,0.85735 0.0145,1.15961 0.34337,1.11536 1.14836,-0.15455 0.8489,-1.33921 1.31893,-1.049 1.90004,1.17318 0.52092,1.99199 1.44864,2.69293 2.85164,2.15455 1.38354,-0.53092 2.08638,-0.0311 2.09996,1.49348 0.0175,1.96694 0.20348,2.00822 1.31292,0.2915 1.04516,-1.61728 1.2964,-1.42592 1.31292,1 0.0236,3.47012 -0.74036,3.61392 -5.31292,1 -4.34536,-2.48403 -6.66667,-2.48403 -6.66667,0 0,1.1 -0.6,2 -1.33333,2 -0.73334,0 -1.33334,-0.48 -1.33334,-1.06667 z M 164.06395,239 c 0.0903,-1.4122 12.34336,-11.03714 13.09456,-10.28594 C 177.91335,229.46889 166.67207,240 165.11148,240 c -0.61132,0 -1.08271,-0.45 -1.04753,-1 z m 316.81328,-6.26543 c -0.49555,-1.29136 -0.10067,-1.68623 1.19068,-1.19068 2.10897,0.80928 2.65824,3.12277 0.74141,3.12277 -0.65488,0 -1.52432,-0.86944 -1.93209,-1.93209 z m 37.78944,-0.16315 c 0,-0.41904 0.9,-1.6619 2,-2.7619 2.17074,-2.17075 2.44261,-1.84772 1.19068,1.41476 -0.76066,1.98225 -3.19068,3.00824 -3.19068,1.34714 z m -362.20356,-2.62109 c -0.77635,-2.02313 2.89034,-7.28367 5.07688,-7.28367 1.30906,0 1.49197,4.16331 0.31736,7.22428 -1.03408,2.69478 -4.36886,2.7315 -5.39424,0.0593 z m 316.87022,1.08852 c -5.82949,-1.0458 -6.41286,-3.16733 -0.75148,-2.73288 2.86491,0.21984 5.456,1.14093 5.75799,2.04688 0.30197,0.90593 0.0491,1.56544 -0.56207,1.46557 -0.6111,-0.0999 -2.6111,-0.45068 -4.44444,-0.77957 z m 184.40719,-0.0923 c -2.01261,-1.27952 -1.60465,-10.93252 0.46237,-10.94057 1.86207,-0.007 4.15626,6.42348 3.4465,9.66069 -0.55719,2.54134 -1.45979,2.83687 -3.90887,1.27988 z m -9.12868,-3.03525 c -0.48337,-0.78212 -0.59291,-1.708 -0.2434,-2.05751 0.34949,-0.3495 0.99075,0.29042 1.425,1.42204 0.90157,2.34948 0.1332,2.76275 -1.1816,0.63547 z m 19.59868,-2.578 c 0,-1.83333 0.30264,-2.58333 0.67252,-1.66667 0.36988,0.91667 0.36988,2.41667 0,3.33334 -0.36988,0.91666 -0.67252,0.16666 -0.67252,-1.66667 z m -294.32759,-1.52275 c -0.38884,-0.62916 1.57843,-1.16216 4.37171,-1.18446 3.96657,-0.0317 4.58761,-0.32703 2.83609,-1.3488 -1.23342,-0.71955 -4.15413,-1.53084 -6.49045,-1.80286 -2.88516,-0.33593 -6.01529,-2.34413 -9.7574,-6.26006 -5.18435,-5.42518 -3.17852,-4.2637 4.23495,2.45226 3.79,3.43342 6.79902,4.06476 4.14786,0.8703 -1.52406,-1.83638 -1.40881,-2.07051 0.83674,-1.69995 1.43233,0.23637 3.35884,-0.0435 4.28113,-0.62197 0.99547,-0.62435 2.61555,-0.11307 3.9868,1.25817 2.19097,2.19099 2.1218,2.26269 -1.34356,1.39295 -2.19217,-0.5502 -3.65347,-0.37351 -3.65347,0.44177 0,1.17381 2.7083,1.93508 5.54262,1.55797 0.48178,-0.0641 0.67769,0.91486 0.43536,2.17544 -0.24234,1.2606 -0.48788,2.59199 -0.54567,2.95866 -0.18443,1.17034 -8.14727,1.00054 -8.88271,-0.18942 z m -8.27216,-3.99937 c -2.41408,-1.5458 -4.13442,-3.06535 -3.82298,-3.37677 0.31142,-0.31143 2.8203,0.96341 5.57529,2.83298 6.01116,4.0793 4.501,4.54794 -1.75231,0.54379 z M 206.7808,219.33333 c 0.13884,-2.52563 2.36101,-6.77847 2.4384,-4.66667 0.0403,1.1 -0.50832,2.9 -1.2192,4 -0.71088,1.1 -1.25952,1.4 -1.2192,0.66667 z m 179.63587,-0.24415 c 0.96249,-0.38516 2.1125,-0.3378 2.55556,0.1052 0.44305,0.44306 -0.34446,0.75819 -1.75,0.7003 -1.55327,-0.064 -1.8692,-0.37992 -0.80556,-0.80555 z m 242.91666,-0.93785 c 0,-0.28344 1.76831,-0.77487 3.92959,-1.09208 2.16127,-0.3172 3.62585,-0.0853 3.25464,0.51533 -0.66068,1.06902 -7.18423,1.59272 -7.18423,0.57675 z m -309.36008,-4.18356 c -0.92762,-1.11772 -1.42837,-2.29043 -1.11278,-2.60603 0.3156,-0.31558 1.30618,0.59891 2.2013,2.03223 1.93575,3.09963 1.29018,3.43995 -1.08852,0.5738 z M 654,214.66666 c -1.68085,-0.72229 -1.92731,-1.1459 -0.66667,-1.1459 1.1,0 3.2,0.51565 4.66667,1.1459 1.68085,0.7223 1.92731,1.14591 0.66667,1.14591 -1.1,0 -3.2,-0.51565 -4.66667,-1.14591 z m -307.33333,-2 c -0.95674,-1.15278 -1.08632,-2 -0.30591,-2 0.74467,0 1.69929,0.9 2.12141,2 0.42211,1.1 0.55976,2 0.30591,2 -0.25385,0 -1.20849,-0.9 -2.12141,-2 z m 20.53998,-2.33333 -2.53998,-3 3.33333,2.65245 c 1.83333,1.45886 3.58333,2.80886 3.88889,3 0.30555,0.19115 -0.0515,0.34755 -0.79336,0.34755 -0.74189,0 -2.49189,-1.35 -3.88888,-3 z m 9.46002,0.33333 c -0.45323,-0.73333 -0.18864,-1.33333 0.58797,-1.33333 0.77661,0 1.41203,0.6 1.41203,1.33333 0,0.73334 -0.26459,1.33334 -0.58798,1.33334 -0.32338,0 -0.9588,-0.6 -1.41202,-1.33334 z m 88.79192,-0.51574 c -0.94684,-1.14087 -1.07998,-2.22754 -0.32971,-2.69123 0.69209,-0.42775 1.63536,0.20472 2.09612,1.40547 1.13081,2.94685 0.18409,3.63597 -1.76641,1.28576 z M 600,211.46296 c 0,-1.47167 3.271,-6.68811 5.33333,-8.50538 1.71215,-1.50868 1.52024,-1.64844 -1.33333,-0.971 l -3.33333,0.79132 3.3166,-1.93864 c 3.42561,-2.00236 6.00262,-1.64048 4.59036,0.6446 -1.02267,1.65474 2.00326,5.39567 3.57745,4.42276 1.36893,-0.84604 1.62137,2.54315 0.28869,3.87583 -0.49146,0.49147 -2.39814,-0.0923 -4.23706,-1.29717 -3.18384,-2.08614 -3.45951,-2.04747 -5.7731,0.8097 C 601.09332,210.94522 600,211.92081 600,211.46296 Z m 14.66667,-0.7176 c 0,-0.69006 0.59313,-1.62123 1.31806,-2.06926 0.75582,-0.46712 0.97934,0.0681 0.52402,1.25464 -0.88639,2.3099 -1.84208,2.73252 -1.84208,0.81462 z m 63.55901,0.28646 c -1.08293,-1.75221 0.2446,-5.69849 1.91697,-5.69849 1.38776,0 1.38635,1.02175 -0.007,4.57816 -0.62936,1.60715 -1.34896,2.02909 -1.91062,1.12033 z M 213.33333,208.3699 c 0,-2.53941 2.53807,-5.47676 6.66667,-7.71544 1.1,-0.59645 0.64451,0.4068 -1.0122,2.22946 -1.65671,1.82265 -2.6922,3.63389 -2.30111,4.025 0.3911,0.39109 -0.20341,1.47004 -1.32113,2.39766 -1.70363,1.4139 -2.03223,1.26243 -2.03223,-0.93668 z m 27.63976,-0.46966 c 0.77202,-2.95222 3.02691,-3.4808 3.02691,-0.70956 0,1.02154 -0.83209,2.17665 -1.84909,2.5669 -1.29716,0.49778 -1.64872,-0.0567 -1.17782,-1.85734 z m 142.04524,0.47632 c 2.02675,-0.30648 5.02675,-0.29828 6.66667,0.0181 1.63992,0.31648 -0.0184,0.56723 -3.685,0.55723 -3.66667,-0.0107 -5.00841,-0.26896 -2.98167,-0.57543 z m 14.315,-1.00899 c 0,-0.34784 1.95,-1.62992 4.33334,-2.84907 L 406,202.30185 l -2.53999,2.84908 c -2.24737,2.52085 -6.12668,3.92439 -6.12668,2.21664 z M 220.66667,204 c 1.32732,-1.46667 2.7133,-2.66667 3.07997,-2.66667 0.36667,0 -0.41932,1.2 -1.74664,2.66667 -1.32732,1.46666 -2.71331,2.66666 -3.07997,2.66666 -0.36667,0 0.41932,-1.2 1.74664,-2.66666 z m 20.87718,-2.66667 c 0,-1.83333 0.30264,-2.58333 0.67252,-1.66667 0.36988,0.91667 0.36988,2.41667 0,3.33334 -0.36988,0.91666 -0.67252,0.16666 -0.67252,-1.66667 z m 61.74692,-1.38036 c -1.35072,-1.49252 -3.23456,-2.41487 -4.1863,-2.04965 -0.95175,0.36522 -2.42943,-0.66362 -3.28374,-2.28631 -0.8543,-1.62269 -2.19608,-3.36772 -2.98172,-3.87785 -0.78565,-0.51012 -1.11952,-1.23644 -0.74192,-1.61403 1.19524,-1.19524 12.4338,7.00028 13.48082,9.83063 1.2613,3.40965 0.80057,3.40909 -2.28714,-0.003 z m 50.63074,0.64013 c -2.48536,-1.99118 -2.46902,-2.0158 0.41182,-0.61974 1.65,0.79958 3,1.73268 3,2.07354 0,1.0203 -0.69148,0.72566 -3.41182,-1.4538 z m 48.02429,-0.43492 c 2.17019,-1.49106 4.27019,-2.29362 4.66667,-1.78345 0.39648,0.51016 1.3133,1.358 2.03738,1.88407 0.7241,0.52606 0.12414,0.8802 -1.33333,0.78694 -1.45741,-0.0932 -4.14985,0.2789 -5.98319,0.82698 -3.09378,0.92488 -3.04977,0.80168 0.61247,-1.71454 z m 282.49864,0.50848 c 0,-1.1 0.78117,-2 1.73593,-2 0.99527,0 1.40848,0.85335 0.96847,2 -0.42212,1.1 -1.20328,2 -1.73593,2 -0.53266,0 -0.96847,-0.9 -0.96847,-2 z m -460.44444,-2 c 1.1,-0.71088 2.6,-1.29249 3.33333,-1.29249 0.73334,0 0.43334,0.58161 -0.66666,1.29249 -1.1,0.71088 -2.6,1.2925 -3.33334,1.2925 -0.73333,0 -0.43333,-0.58162 0.66667,-1.2925 z m 8,0 c -1.20172,-0.77661 -1.36617,-1.30065 -0.41203,-1.31292 0.87339,-0.0107 1.9588,0.57959 2.41203,1.31292 1.02307,1.65538 0.56149,1.65538 -2,0 z M 422.70772,191 c 11.54268,-12.27402 11.67351,-12.38844 7.24105,-6.33334 -5.17829,7.074 -12.98169,15.3284 -14.49345,15.33115 -0.66624,0.001 2.59735,-4.04781 7.2524,-8.99781 z m 167.70895,8.08918 c 0.96249,-0.38516 2.1125,-0.3378 2.55556,0.1052 0.44305,0.44306 -0.34446,0.75819 -1.75,0.7003 -1.55327,-0.064 -1.8692,-0.37992 -0.80556,-0.80555 z M 600,199.47598 c 0,-0.28821 0.93116,-0.88133 2.06925,-1.31806 1.18656,-0.45532 1.72176,-0.2318 1.25464,0.52401 C 602.54088,199.94888 600,200.55586 600,199.47598 Z m -265.50341,-3.14265 c -1.6585,-2.11475 -1.61134,-2.16191 0.50341,-0.50341 1.28333,1.00646 2.33333,2.05646 2.33333,2.33333 0,1.09739 -1.09492,0.39108 -2.83674,-1.82992 z m 47.44858,0.91129 c -0.48337,-0.78212 -0.43664,-1.83212 0.10387,-2.33333 0.54049,-0.50121 1.25556,-0.14633 1.58904,0.7886 0.45117,1.26493 1.85443,0.96745 5.48412,-1.16261 l 4.87781,-2.86252 -4,3.448 c -4.33144,3.7337 -6.67681,4.35154 -8.05482,2.12186 z m -8.63717,-1.94181 c -1.40904,-1.6978 -1.32656,-1.89291 0.50341,-1.19068 1.20372,0.46191 2.18859,1.37564 2.18859,2.03052 0,1.71461 -0.77183,1.47381 -2.692,-0.83984 z M 414,194.66666 C 415.32732,193.2 416.71331,192 417.07997,192 c 0.36667,0 -0.41932,1.2 -1.74664,2.66666 -1.32732,1.46667 -2.7133,2.66667 -3.07997,2.66667 -0.36667,0 0.41932,-1.2 1.74664,-2.66667 z m 172.33333,1.78363 c 0.91667,-0.36988 2.41667,-0.36988 3.33334,0 0.91666,0.36988 0.16666,0.67252 -1.66667,0.67252 -1.83333,0 -2.58333,-0.30264 -1.66667,-0.67252 z M 394,194.66666 c 0.45323,-0.73333 1.08864,-1.33333 1.41203,-1.33333 0.32338,0 0.58797,0.6 0.58797,1.33333 C 396,195.4 395.36459,196 394.58797,196 c -0.77661,0 -1.0412,-0.6 -0.58797,-1.33334 z m 16,-1.33333 c 1.32732,-1.46667 2.71331,-2.66667 3.07997,-2.66667 0.36667,0 -0.41932,1.2 -1.74664,2.66667 C 410.00601,194.8 408.62003,196 408.25336,196 c -0.36667,0 0.41932,-1.2 1.74664,-2.66667 z m -212.30796,0.40935 c 1.29729,-0.33806 3.09729,-0.31583 4,0.0495 0.90271,0.36524 -0.15871,0.64183 -2.35871,0.61466 -2.2,-0.0272 -2.93858,-0.326 -1.64129,-0.66406 z m 69.64129,-1.12416 c -2.2,-1.00738 -3.06468,-1.85864 -1.9215,-1.89172 1.14317,-0.0331 3.24317,0.82078 4.66666,1.89746 3.16055,2.39051 2.48499,2.3891 -2.74516,-0.005 z m 13,-0.60391 c -4.46732,-2.72377 -6.15657,-5.1106 -2,-2.82589 3.09623,1.70188 7.84162,5.38332 7,5.43056 -0.36666,0.0205 -2.61666,-1.15152 -5,-2.60467 z m 105,2.14864 c 0,-0.27687 1.05,-1.32687 2.33334,-2.33333 2.11474,-1.6585 2.1619,-1.61134 0.50341,0.50341 -1.74183,2.221 -2.83675,2.92731 -2.83675,1.82992 z m -114.83674,-4.49659 c -1.69268,-2.15834 -1.62994,-2.18664 0.83674,-0.37729 1.46667,1.07583 2.91667,2.12583 3.22223,2.33333 0.30555,0.20751 -0.0709,0.3773 -0.83675,0.3773 -0.76576,0 -2.21576,-1.05 -3.22222,-2.33334 z m 66.83674,0.92131 c 0,-0.77661 0.6,-1.0412 1.33334,-0.58797 C 339.4,190.45322 340,191.08864 340,191.41202 340,191.73541 339.4,192 338.66667,192 c -0.73334,0 -1.33334,-0.63542 -1.33334,-1.41203 z m 10.08651,-0.69195 c -1.15719,-1.15717 -2.77348,-3.40717 -3.59177,-5 -0.81831,-1.59281 -0.95539,-2.29602 -0.30464,-1.56269 5.9916,6.75196 7.49484,8.66667 6.80422,8.66667 -0.4421,0 -1.75062,-0.94679 -2.90781,-2.10398 z m 5.192,0.68194 c -0.48337,-0.78212 -0.55871,-1.7422 -0.1674,-2.13352 0.95509,-0.95508 3.55556,0.72777 3.55556,2.30092 0,1.70396 -2.30188,1.59022 -3.38816,-0.1674 z m 52.83301,0.75054 c 0.64438,-1.55325 15.88848,-16.02664 15.88848,-15.08518 0,0.34657 -3.69981,4.18361 -8.22181,8.52674 -4.52199,4.34314 -7.97199,7.29443 -7.66667,6.55844 z m -75.57153,-3.66184 -2.53999,-3 3,2.53999 c 2.81926,2.38696 3.60699,3.46001 2.53999,3.46001 -0.25301,0 -1.60301,-1.35 -3,-3 z m -121.42648,0.30368 c 2.10731,-0.63202 5.05756,-0.61872 6.66667,0.0301 2.20532,0.88921 1.31325,1.15676 -3.78018,1.13377 -5.76045,-0.026 -6.15281,-0.1842 -2.88649,-1.16387 z m 210.21983,-3.30368 C 421.15437,182.1 423.48977,180 423.85644,180 c 0.36667,0 -1.36873,2.1 -3.85644,4.66666 -2.48771,2.56667 -4.82311,4.66667 -5.18977,4.66667 -0.36667,0 1.36873,-2.1 3.85644,-4.66667 z m -95.69059,-0.33333 c -3.45189,-4.98532 -4.57396,-7 -3.89861,-7 0.31249,0 2.15641,2.4 4.0976,5.33333 3.94521,5.96163 3.77309,7.40327 -0.19899,1.66667 z m 98.35725,3.16325 c 0,-0.27686 1.05,-1.32686 2.33334,-2.33333 2.11474,-1.65849 2.1619,-1.61133 0.50341,0.50341 -1.74183,2.221 -2.83675,2.92731 -2.83675,1.82992 z m -67.21481,-4.93222 c -1.89852,-2.25626 -3.43361,-4.80626 -3.41131,-5.66667 0.0223,-0.8604 0.70424,-0.36436 1.51543,1.10231 0.81119,1.46666 2.69752,4.01666 4.19187,5.66666 1.49434,1.65 2.36574,3 1.93644,3 -0.42931,0 -2.3339,-1.84604 -4.23243,-4.1023 z M 576,185.33333 c 1.1,-0.71088 2.6,-1.29249 3.33333,-1.29249 0.73334,0 0.43334,0.58161 -0.66666,1.29249 -1.1,0.71088 -2.6,1.29249 -3.33334,1.29249 -0.73333,0 -0.43333,-0.58161 0.66667,-1.29249 z M 331.82992,183 c -1.65849,-2.11475 -1.61133,-2.16191 0.50341,-0.50342 1.28334,1.00647 2.33334,2.05647 2.33334,2.33334 0,1.09738 -1.09492,0.39108 -2.83675,-1.82992 z m 95.58913,-2.05751 c 0.50071,-1.31496 1.24626,-2.05496 1.65678,-1.64444 0.41052,0.41052 8.5e-4,1.48639 -0.91038,2.39084 -1.31682,1.30701 -1.46997,1.15387 -0.7464,-0.7464 z m 182.33462,-2.75276 c -2.3487,-4.54119 -1.29103,-11.65768 1.32014,-8.88259 1.13075,1.20174 1.16556,1.8514 0.12,2.23938 -0.81008,0.30057 -1.191,2.02105 -0.84648,3.82328 0.47362,2.47756 1.89724,3.61896 5.83698,4.67982 2.86581,0.77168 5.79673,1.0408 6.51314,0.59803 0.71642,-0.44277 1.30258,-0.21544 1.30258,0.50517 0,0.72062 -2.76203,1.20603 -6.13784,1.0787 -5.29288,-0.19966 -6.40912,-0.75606 -8.1085,-4.04179 z m -413.80139,0.69607 c 0.8784,-1.7128 1.96279,-2.74852 2.40972,-2.30159 0.44693,0.44693 -0.27177,1.84832 -1.59712,3.1142 -2.30367,2.20029 -2.33943,2.16453 -0.8126,-0.81261 z m 139.32623,1.02549 c -0.48338,-0.78212 -0.59291,-1.708 -0.2434,-2.05751 0.34949,-0.3495 0.99074,0.29042 1.425,1.42204 0.90157,2.34948 0.1332,2.76275 -1.1816,0.63547 z m 120.13332,-0.53556 c 1.42349,-1.07667 3.18817,-1.95759 3.9215,-1.95759 0.73334,0 0.16866,0.88092 -1.25484,1.95759 -1.42349,1.07668 -3.18817,1.9576 -3.9215,1.9576 -0.73334,0 -0.16866,-0.88092 1.25484,-1.9576 z m 145.9215,-0.12109 c 0,-1.14328 0.6,-1.70787 1.33334,-1.25464 0.73333,0.45322 1.33333,1.38864 1.33333,2.07869 0,0.69005 -0.6,1.25464 -1.33333,1.25464 -0.73334,0 -1.33334,-0.93541 -1.33334,-2.07869 z m -242.83674,-1.58798 c -1.6585,-2.11474 -1.61134,-2.1619 0.50341,-0.50341 2.221,1.74183 2.92731,2.83675 1.82992,2.83675 -0.27687,0 -1.32687,-1.05 -2.33333,-2.33334 z m -59.81011,-3.61457 c -0.68615,-1.80467 -3.39851,-8.47745 -6.02749,-14.8284 -2.62898,-6.35093 -4.55735,-11.76979 -4.28526,-12.04187 0.45503,-0.45502 4.09958,7.88212 10.412,23.81818 1.37978,3.48333 2.20259,6.33333 1.82848,6.33333 -0.37412,0 -1.2416,-1.47656 -1.92773,-3.28124 z m 154.64685,2.7084 c 0,-0.36667 1.2,-1.30889 2.66667,-2.09383 1.46667,-0.78493 2.66667,-1.12716 2.66667,-0.76049 0,0.36667 -1.2,1.30889 -2.66667,2.09383 -1.46667,0.78493 -2.66667,1.12716 -2.66667,0.76049 z m 67.33334,-4.09383 c 0,-2.42661 0.45,-4.1339 1,-3.79398 0.55,0.33992 1,2.04721 1,3.79398 0,1.74678 -0.45,3.45407 -1,3.79399 -0.55,0.33992 -1,-1.36737 -1,-3.79399 z m 77.55569,3.69312 c -1.35824,-2.19768 1.73233,-3.62818 3.56048,-1.648 1.17864,1.27666 1.17809,1.47064 -0.003,0.80884 -0.85402,-0.47881 -1.79418,-0.14638 -2.08922,0.73874 -0.39131,1.17392 -0.78872,1.20109 -1.46896,0.1004 z m 61.38616,-1.73304 C 658.37152,173.18204 657.88009,172 658.51645,172 c 1.46614,0 4.73044,3.86421 3.9357,4.65897 -0.327,0.32699 -1.60663,-0.58752 -2.84363,-2.03223 z m -376.95956,-2.66949 c -2.33292,-5.63216 -1.13877,-5.98524 1.65616,-0.48969 1.26781,2.49284 1.79061,4.53244 1.16176,4.53244 -0.62885,0 -1.89691,-1.81924 -2.81792,-4.04275 z m 332.98993,3.23719 c -0.53473,-0.53472 -0.95398,-2.22222 -0.93168,-3.75 0.0375,-2.56479 0.14691,-2.59502 1.4277,-0.3942 1.49148,2.56281 1.10997,5.7502 -0.49602,4.1442 z m -356.14084,-2.57932 c -1.28664,-3.35292 -0.90708,-4.21807 0.66471,-1.51512 0.77825,1.33833 1.13413,2.71421 0.79084,3.0575 -0.34329,0.3433 -0.99829,-0.35078 -1.45555,-1.54238 z m 66.44712,0.6295 c -0.48337,-0.78212 -0.5929,-1.708 -0.2434,-2.0575 0.3495,-0.34951 0.99075,0.29041 1.425,1.42204 0.90158,2.34948 0.1332,2.76274 -1.1816,0.63546 z m 188.34896,-0.29224 c -0.3884,-1.01217 0.34206,-1.71429 1.7835,-1.71429 1.83804,0 2.08974,0.42361 1.01858,1.71429 -0.7825,0.94286 -1.58506,1.71428 -1.78349,1.71428 -0.19841,0 -0.65677,-0.77142 -1.01859,-1.71428 z M 594.70751,174 c 0,-0.73334 0.58161,-2.23334 1.29249,-3.33334 0.71088,-1.1 1.29249,-1.4 1.29249,-0.66666 0,0.73333 -0.58161,2.23333 -1.29249,3.33333 -0.71088,1.1 -1.29249,1.4 -1.29249,0.66667 z m 28.9755,-0.76432 c -4.03246,-2.34935 -5.2886,-6.10628 -2.85522,-8.53966 1.98554,-1.98554 2.35054,-1.97961 4.62112,0.0752 1.8423,1.66727 2.13918,2.84038 1.17485,4.64226 -2.08456,3.89502 -1.49873,4.50949 1.70957,1.79314 l 3,-2.53998 -2.53998,3 c -1.39699,1.65 -2.59699,2.98176 -2.66667,2.95945 -0.0697,-0.0223 -1.16932,-0.648 -2.44367,-1.39044 z M 278.13333,171.2 c -0.47452,-1.23659 -0.56277,-2.54835 -0.1961,-2.91502 0.36666,-0.36666 1.05492,0.3451 1.52944,1.58168 0.47452,1.23659 0.56277,2.54835 0.1961,2.91502 -0.36666,0.36666 -1.05492,-0.3451 -1.52944,-1.58168 z m 132.53334,1.62992 c 0,-0.27687 1.05,-1.32687 2.33333,-2.33334 2.11475,-1.65849 2.16191,-1.61133 0.50341,0.50342 -1.74182,2.221 -2.83674,2.9273 -2.83674,1.82992 z m -200.35556,-3.66204 c 0.90445,-0.91123 1.98032,-1.3209 2.39084,-0.91038 0.41052,0.41052 -0.32948,1.15607 -1.64444,1.65678 -1.90027,0.72357 -2.05342,0.57042 -0.7464,-0.7464 z M 444,169.47786 c 0,-0.64414 1.5,-2.15401 3.33333,-3.35525 1.83334,-1.20125 3.33334,-1.97845 3.33334,-1.72713 0,0.25133 -1.5,1.76118 -3.33334,3.35525 C 445.5,169.3448 444,170.122 444,169.47786 Z m 148.32073,-1.45977 c -0.90973,-1.45672 -1.58349,-6.10672 -1.49724,-10.33333 L 590.98032,150 l 1.27557,6.66666 c 0.70156,3.66667 1.26731,7.72964 1.2572,9.02882 -0.0107,1.29918 0.53844,2.01802 1.219,1.59742 0.68055,-0.42061 0.88004,0.16643 0.44332,1.30451 -0.98777,2.57409 -0.87048,2.59791 -2.85468,-0.57932 z m 62.34594,0.56988 c 0,-1.14328 0.60978,-1.70181 1.35508,-1.2412 0.74529,0.46061 1.00989,1.39603 0.58797,2.07869 -1.14297,1.84939 -1.94305,1.50455 -1.94305,-0.83749 z m -368.50195,-1.30619 c -1.28664,-3.35292 -0.90708,-4.21806 0.66471,-1.51512 0.77825,1.33834 1.13413,2.71422 0.79084,3.05751 -0.3433,0.34329 -0.9983,-0.35079 -1.45555,-1.54239 z m 22.66667,0 c -1.28664,-3.35292 -0.90708,-4.21806 0.6647,-1.51512 0.77826,1.33834 1.13414,2.71422 0.79084,3.05751 -0.34329,0.34329 -0.99829,-0.35079 -1.45554,-1.54239 z m -101.49806,-1.94845 c 1.32732,-1.46667 2.62539,-2.66667 2.88462,-2.66667 0.25922,0 -0.2781,1.2 -1.19404,2.66667 C 208.10796,166.8 206.80988,168 206.13929,168 c -0.6706,0 -0.13333,-1.2 1.19404,-2.66667 z m 306.36802,1.86309 c 0.48394,-0.80862 0.0183,-2.60862 -1.03499,-4 -1.05319,-1.39137 -1.93396,-3.91517 -1.95729,-5.60845 -0.0233,-1.69328 -0.53384,-2.77496 -1.13448,-2.40375 -0.60064,0.37122 -0.83879,-1.05081 -0.52922,-3.16005 0.39926,-2.72031 1.13672,-3.61477 2.5372,-3.07736 1.59866,0.61345 1.63832,0.96531 0.20844,1.84901 -1.42702,0.88195 -1.30606,1.86986 0.63026,5.14779 1.31789,2.23101 1.96925,4.05639 1.44746,4.05639 -0.52178,0 0.0595,1.11397 1.29159,2.47549 2.09921,2.3196 2.09611,2.59248 -0.0493,4.33333 -1.25927,1.02182 -1.89363,1.19623 -1.40968,0.3876 z m -249.7281,-2.56198 c -0.92762,-1.11772 -1.3497,-2.36911 -0.93794,-2.78086 0.41174,-0.41176 1.41836,0.50275 2.2369,2.03222 1.74647,3.26329 1.09814,3.63696 -1.29896,0.74864 z m 38.62311,-1.48603 c -0.73569,-1.93504 -1.09023,-3.76567 -0.78783,-4.06805 0.3024,-0.3024 1.18798,1.28081 1.96795,3.51824 1.73387,4.97376 0.68725,5.46137 -1.18012,0.54981 z m 216.90169,1.46671 c -0.45726,-1.1916 -0.79336,-2.86748 -0.74686,-3.72418 0.0465,-0.85668 0.65937,-0.12053 1.36197,1.63596 0.7026,1.75647 1.03869,3.43235 0.74687,3.72418 -0.29183,0.29182 -0.90472,-0.44436 -1.36198,-1.63596 z m 109.33334,0 c -1.28664,-3.35292 -0.90708,-4.21807 0.6647,-1.51512 0.77826,1.33833 1.13414,2.71421 0.79084,3.0575 -0.34329,0.3433 -0.99829,-0.35078 -1.45554,-1.54238 z m -281.33334,-1.33334 c -1.28664,-3.35292 -0.90708,-4.21806 0.66471,-1.51512 0.77825,1.33834 1.13413,2.71422 0.79084,3.05751 -0.34329,0.34329 -0.99829,-0.35079 -1.45555,-1.54239 z m 7.16862,0.63952 c 0,-0.77661 0.6,-1.0412 1.33333,-0.58797 0.73333,0.45323 1.33333,1.08864 1.33333,1.41203 0,0.32338 -0.6,0.58797 -1.33333,0.58797 -0.73333,0 -1.33333,-0.63541 -1.33333,-1.41203 z m -147.04274,-3.9497 c 2.35983,-2.47583 4.5165,-4.23228 4.79258,-3.90323 0.27609,0.32907 -1.65468,2.35475 -4.2906,4.50152 l -4.79258,3.90323 z m 63.43728,-7.32476 c -0.1944,-7.45027 -0.87464,-11.03154 -2.38154,-12.53802 -1.86416,-1.86361 -2.2565,-1.87628 -3.37414,-0.1088 -1.07813,1.70496 -1.2677,1.65579 -1.28512,-0.33333 -0.0263,-3.00143 2.82254,-2.98296 6.30907,0.0409 2.08712,1.81015 2.84835,4.34496 3.20401,10.6691 0.25658,4.56218 0.0605,8.29377 -0.43573,8.29244 -0.49623,-0.001 -1.09623,0.98968 -1.33333,2.20224 -0.2371,1.21257 -0.55355,-2.48846 -0.70322,-8.2245 z m 11.60546,6.01982 c -0.93075,-2.24702 -1.38088,-4.39689 -1.0003,-4.77748 0.38059,-0.38058 1.36406,1.23595 2.18548,3.5923 1.9399,5.56478 1.01288,6.4918 -1.18518,1.18518 z m 23.2785,2.57796 c -0.48337,-0.78212 -0.5929,-1.708 -0.2434,-2.0575 0.3495,-0.34951 0.99075,0.29041 1.425,1.42204 0.90158,2.34948 0.1332,2.76274 -1.1816,0.63546 z m 21.02342,-2.91173 c -2.27012,-6.27793 -1.95543,-7.97799 0.45045,-2.43344 1.08972,2.51137 1.80211,5.10377 1.58307,5.76089 -0.21904,0.65714 -1.13412,-0.84022 -2.03352,-3.32745 z M 450.66667,160 c 0,-0.73334 0.63541,-1.33334 1.41202,-1.33334 0.77662,0 1.0412,0.6 0.58798,1.33334 -0.45323,0.73333 -1.08864,1.33333 -1.41203,1.33333 -0.32339,0 -0.58797,-0.6 -0.58797,-1.33333 z M 562,160 c 0.45323,-0.73334 1.08864,-1.33334 1.41203,-1.33334 0.32338,0 0.58797,0.6 0.58797,1.33334 0,0.73333 -0.63541,1.33333 -1.41203,1.33333 -0.77661,0 -1.0412,-0.6 -0.58797,-1.33333 z m 26.25993,-3.33334 c 0.0272,-2.2 0.326,-2.93858 0.66406,-1.64129 0.33805,1.29729 0.31582,3.09729 -0.0495,4 -0.36524,0.90271 -0.64183,-0.15871 -0.61465,-2.35871 z m 17.57246,1.37732 c -0.41283,-1.07581 -0.4933,-2.72581 -0.1788,-3.66666 0.31449,-0.94086 0.88789,-0.0607 1.27421,1.95601 0.75432,3.93763 0.132,4.90939 -1.09541,1.71065 z m -179.16572,-0.75249 c 0,-0.71032 0.556,-1.29149 1.23557,-1.29149 0.67956,0 1.50996,-1.05 1.84532,-2.33334 0.48099,-1.8405 0.64244,-1.72982 0.76444,0.52402 0.0851,1.57154 -0.74533,3.2027 -1.84533,3.62482 -1.1,0.42211 -2,0.1863 -2,-0.52401 z m -123.78342,-3.3486 c -2.23398,-4.90305 -1.80777,-5.94905 0.60782,-1.49168 1.12802,2.08149 1.80146,4.03403 1.49653,4.33896 -0.30493,0.30493 -1.25189,-0.97633 -2.10435,-2.84728 z m -105.19028,-0.70193 c -0.23065,-3.06208 0.39784,-3.33147 1.43948,-0.617 0.4131,1.07652 0.30184,2.23496 -0.24724,2.5743 -0.54908,0.33935 -1.08558,-0.54144 -1.19224,-1.9573 z m 77.80508,0.70749 c -0.45726,-1.1916 -0.79336,-2.86748 -0.74686,-3.72417 0.0465,-0.85668 0.65937,-0.12054 1.36197,1.63596 0.7026,1.75646 1.03869,3.43234 0.74687,3.72417 -0.29183,0.29183 -0.90472,-0.44436 -1.36198,-1.63596 z m 16.82799,-5.32535 c -1.5046,-4.08446 -2.10215,-7.21514 -1.32788,-6.95705 1.26325,0.42108 5.27087,13.15277 4.41481,14.02532 -0.1932,0.19692 -1.58232,-2.9838 -3.08693,-7.06827 z m 28.02715,5.74246 c -0.74808,-0.9344 -1.78003,-3.1989 -2.29322,-5.03223 -0.76437,-2.73068 -0.41929,-2.52269 1.90867,1.15037 2.78512,4.39439 3.06615,7.2313 0.38455,3.88186 z M 560,152.74536 c 0,-1.14328 0.6,-2.0787 1.33333,-2.0787 0.73334,0 1.33334,0.56459 1.33334,1.25464 0,0.69006 -0.6,1.62547 -1.33334,2.0787 C 560.6,154.45322 560,153.88866 560,152.74536 Z m -280.50195,-2.79691 c -0.45726,-1.1916 -0.79336,-2.86748 -0.74686,-3.72417 0.0465,-0.85668 0.65937,-0.12054 1.36197,1.63596 0.7026,1.75646 1.03869,3.43234 0.74687,3.72417 -0.29183,0.29183 -0.90472,-0.44436 -1.36198,-1.63596 z m 33.10454,-2.07236 c -1.17291,-2.26815 -1.89584,-4.36061 -1.60654,-4.64992 0.28931,-0.28931 1.52384,1.56644 2.74342,4.12391 2.7421,5.75026 1.79201,6.18985 -1.13688,0.52601 z m 114.16934,1.19016 c -0.0579,-1.98023 -1.11218,-4.16391 -2.34286,-4.85264 -1.65895,-0.92839 -2.33155,-3.44533 -2.60095,-9.73292 L 421.46477,126 l 1.37062,7.00821 c 0.94121,4.81255 2.23716,7.47197 4.13646,8.48845 2.33111,1.24758 2.63584,1.1415 1.93884,-0.67489 -0.45485,-1.18531 -0.24582,-2.15511 0.46448,-2.15511 1.69939,0 1.66702,3.61054 -0.0419,4.66667 -0.73334,0.45323 -1.33334,1.72404 -1.33334,2.82404 0,1.1 0.6,1.62919 1.33334,1.17596 0.73333,-0.45323 1.33333,0.14677 1.33333,1.33333 0,1.18656 -0.54876,1.81823 -1.21945,1.40372 -0.6707,-0.41452 -1.52334,7e-5 -1.89474,0.92131 -0.37141,0.92124 -0.72265,0.0548 -0.78054,-1.92544 z M 304,149.33333 C 304,148.6 304.64043,148 305.42319,148 c 0.86022,0 1.05841,-1.18667 0.50102,-3 -1.08409,-3.52684 -0.27889,-2.93363 2.0282,1.49424 1.06144,2.03714 1.12566,2.8387 0.18062,2.25464 -0.8065,-0.49844 -1.46636,-0.27086 -1.46636,0.50576 0,0.77661 -0.6,1.41202 -1.33334,1.41202 -0.73333,0 -1.33333,-0.6 -1.33333,-1.33333 z m 283.23929,-4.82247 c -0.0552,-3.45752 0.34978,-5.19465 0.97959,-4.20236 1.35948,2.14188 1.43827,8.66851 0.1144,9.48183 -0.55,0.33792 -1.04232,-2.03784 -1.09404,-5.27947 z M 204,148.82992 c 0,-0.27687 1.05,-1.32687 2.33333,-2.33334 2.11475,-1.65849 2.16191,-1.61133 0.50342,0.50342 C 205.09492,149.221 204,149.9273 204,148.82992 Z m 358.66667,-1.49659 c 1.83333,-1.04803 3.93333,-1.90551 4.66666,-1.90551 0.73334,0 -0.16666,0.85748 -2,1.90551 -1.83333,1.04803 -3.93333,1.90551 -4.66666,1.90551 -0.73334,0 0.16666,-0.85748 2,-1.90551 z m 28,0.62483 c 0,-0.71032 0.9,-1.2915 2,-1.2915 1.1,0 2,0.23582 2,0.52402 0,0.28821 -0.9,0.86937 -2,1.29149 -1.1,0.42211 -2,0.18629 -2,-0.52401 z M 624,148.27352 c -1.83333,-0.27463 -3.93333,-1.11174 -4.66667,-1.86023 -0.90501,-0.92372 0.1658,-1.05157 3.33334,-0.39801 6.85494,1.41441 7.93724,3.24748 1.33333,2.25824 z m -341.83528,-3.6584 c -0.45727,-1.1916 -0.77981,-3.16748 -0.71679,-4.39084 0.0631,-1.22335 0.6432,-0.45444 1.28926,1.70869 1.25688,4.20835 0.81237,6.29097 -0.57247,2.68215 z m -85.93185,-10.60846 c 0.23858,-6.22967 0.9427,-11.32967 1.56472,-11.33333 0.622,-0.004 0.70261,3.6836 0.17913,8.19392 l -0.95179,8.2006 3.82087,-2.64864 c 5.67773,-3.93582 8.29641,-5.04333 4.48753,-1.89789 C 203.5,136.0353 201.55,137.28737 201,137.30368 c -0.55,0.0163 -1,1.82965 -1,4.02965 0,2.75171 -0.65551,4 -2.10047,4 -1.78094,0 -2.03448,-1.72303 -1.66666,-11.32667 z m 384.92976,8.58634 c -1.00611,-1.50718 -2.7293,-2.87406 -3.8293,-3.0375 -1.1,-0.16344 -2.75,-0.76569 -3.66666,-1.33836 C 572.72708,137.63017 572,137.79194 572,138.58797 572,139.36458 571.1,140 570,140 c -1.1,0 -2,-0.6 -2,-1.33334 0,-0.73333 0.9,-1.40833 2,-1.5 1.1,-0.0916 2.75,-0.25513 3.66667,-0.36325 0.91666,-0.10813 1.47058,-1.31924 1.23094,-2.69136 -0.23965,-1.37213 0.26894,-2.93028 1.1302,-3.46258 0.86127,-0.53228 1.65734,-2.55285 1.76906,-4.49014 0.11186,-1.93956 1.17261,-3.83055 2.36062,-4.20821 1.18662,-0.37723 3.2296,-1.87055 4.53998,-3.31849 1.62272,-1.79308 3.9111,-2.56892 7.17585,-2.43286 4.50524,0.18777 4.55293,0.23404 0.79335,0.76987 -4.99138,0.71139 -11.42831,6.56477 -10.3395,9.40217 0.58228,1.51738 0.29016,1.76271 -1.10058,0.9243 -1.4868,-0.8963 -1.58146,-0.72857 -0.44091,0.78128 0.7988,1.05743 1.35171,4.14441 1.22869,6.85995 -0.1334,2.94491 0.30526,4.61047 1.087,4.12732 0.74752,-0.46198 0.88638,-0.1236 0.32319,0.78774 -0.54311,0.87876 -0.26235,2.47146 0.62391,3.53933 0.92134,1.11016 1.04014,1.9416 0.27742,1.9416 -0.73368,0 -2.15714,-1.23315 -3.16326,-2.74033 z m 40.87161,-1.19346 c -2.37077,-4.58456 -2.56057,-5.88222 -0.69143,-4.72701 2.09855,1.29696 5.5497,8.6608 4.059,8.6608 -0.73333,0 -2.24874,-1.7702 -3.36757,-3.93379 z m -344.59564,0.48935 c 0.064,-1.55327 0.37992,-1.8692 0.80555,-0.80556 0.38516,0.96249 0.3378,2.11249 -0.1052,2.55556 -0.44307,0.44305 -0.75819,-0.34445 -0.7003,-1.75 z m -74.77193,-2.46173 c 0,-0.36667 1.2,-1.3089 2.66666,-2.09383 C 206.8,136.5484 208,136.20617 208,136.57284 c 0,0.36666 -1.2,1.30889 -2.66667,2.09382 -1.46666,0.78494 -2.66666,1.12716 -2.66666,0.7605 z m 62.66666,-6.09383 c -1.72358,-1.11386 -1.68838,-1.29532 0.25464,-1.31292 1.24006,-0.0112 2.62547,0.57959 3.0787,1.31292 1.0429,1.68747 -0.72218,1.68747 -3.33334,0 z m 17.33334,-0.0787 c 0,-0.77661 0.6,-1.04121 1.33333,-0.58798 0.73333,0.45323 1.33333,1.08864 1.33333,1.41203 0,0.32338 -0.6,0.58797 -1.33333,0.58797 -0.73333,0 -1.33333,-0.63541 -1.33333,-1.41202 z m 10.87652,-1.67478 c -2.04659,-4.97786 -1.94866,-5.50914 0.55417,-3.00632 1.15355,1.15355 1.84797,3.14641 1.54319,4.42857 -0.43354,1.82371 -0.89014,1.51407 -2.09736,-1.42225 z M 73,132.45029 c 0.916667,-0.36988 2.416667,-0.36988 3.333333,0 0.916667,0.36988 0.166667,0.67251 -1.666666,0.67251 -1.833334,0 -2.583334,-0.30263 -1.666667,-0.67251 z m 6.75,-1.36111 c 0.9625,-0.38516 2.1125,-0.33779 2.555556,0.10527 0.443055,0.44305 -0.344445,0.75818 -1.75,0.70029 -1.553257,-0.064 -1.8692,-0.37992 -0.805556,-0.80556 z m 5.583333,-1.94075 c 0,-0.63164 0.835807,-1.14843 1.857348,-1.14843 1.021542,0 2.170762,-0.81674 2.553823,-1.81499 0.38306,-0.99824 1.948081,-2.14228 3.477825,-2.54232 1.529743,-0.40003 2.445112,-0.18329 2.034155,0.48165 -0.410957,0.66495 -1.592955,1.20899 -2.62666,1.20899 -1.045137,0 -1.567767,0.81227 -1.177312,1.82978 0.452601,1.17946 -0.510028,2.0615 -2.708513,2.48177 -1.875866,0.3586 -3.410666,0.1352 -3.410666,-0.49645 z m 95.999997,0.50563 c 0,-0.55693 1.35,-1.84193 3,-2.85554 2.98935,-1.83639 2.99098,-1.83279 0.46002,1.01261 -2.71744,3.05505 -3.46002,3.45057 -3.46002,1.84293 z M 279,128.45029 c -0.91667,-0.36988 -1.66667,-1.85792 -1.66667,-3.30676 0,-1.44883 -0.45,-2.3573 -1,-2.01882 -0.55,0.33848 -1.13066,-1.57611 -1.29037,-4.25465 -0.15969,-2.67853 -0.65287,-8.02006 -1.09593,-11.87006 -0.44307,-3.85 -0.52299,-7.000002 -0.17759,-7.000002 0.34539,0 1.83817,2.321812 3.31731,5.159582 2.26482,4.34517 2.40428,5.45009 0.88349,7 -2.16731,2.20882 -0.63943,11.36548 1.80883,10.84042 0.85788,-0.18399 1.55426,1.16015 1.55426,3 0,1.83333 -0.15,3.28596 -0.33333,3.22807 -0.18333,-0.0579 -1.08333,-0.4079 -2,-0.77778 z M 442,128 c 0.45323,-0.73334 1.42404,-1.33334 2.15737,-1.33334 0.73334,0 0.96252,0.6 0.5093,1.33334 -0.45323,0.73333 -1.42404,1.33333 -2.15738,1.33333 -0.73333,0 -0.96252,-0.6 -0.50929,-1.33333 z m -142.04772,-4.21914 c -1.52683,-2.97714 -1.49107,-3.01291 0.8126,-0.81261 1.32535,1.26587 2.04405,2.66726 1.59712,3.1142 -0.44693,0.44693 -1.53132,-0.58878 -2.40972,-2.30159 z m -12.28561,-3.043 C 285.65,118.2104 284,115.72792 284,115.22123 c 0,-0.50668 1.8,1.34376 4,4.1121 3.70395,4.66082 4.52239,6.00006 3.66667,5.99996 -0.18334,-2e-5 -1.98334,-2.06796 -4,-4.59543 z m 24.47309,3.14898 c -1.75647,-0.70261 -2.93027,-1.54078 -2.60844,-1.8626 0.95943,-0.95943 6.46868,0.85573 6.46868,2.13127 0,0.6478 -0.15,1.13979 -0.33333,1.09331 -0.18334,-0.0465 -1.77044,-0.65938 -3.52691,-1.36198 z M 422.66667,122 c 0,-1.83334 0.5168,-3.33334 1.14844,-3.33334 0.63164,0 0.86169,1.5 0.51122,3.33334 -0.35046,1.83333 -0.86725,3.33333 -1.14844,3.33333 -0.28117,0 -0.51122,-1.5 -0.51122,-3.33333 z M 544,123.95815 c 0,-0.71032 0.69299,-1.29149 1.53999,-1.29149 0.9642,0 0.76769,-0.8724 -0.52559,-2.33333 -1.45757,-1.64652 -1.88179,-4.09579 -1.44121,-8.32099 0.82869,-7.94741 1.7283,-8.5341 1.89305,-1.23456 0.11133,4.93025 0.30668,5.34626 1.20043,2.55555 0.84589,-2.64132 1.0951,-1.90972 1.20042,3.52402 0.096,4.95564 -0.42173,7.07018 -1.86709,7.62482 -1.1,0.42211 -2,0.1863 -2,-0.52402 z M 64.333333,123.0809 c 1.283334,-0.33537 3.383334,-0.33537 4.666667,0 1.283333,0.33537 0.233333,0.60976 -2.333333,0.60976 -2.566667,0 -3.616667,-0.27439 -2.333334,-0.60976 z M 180,122.0606 c 0,-0.93476 6.67709,-7.39394 7.6434,-7.39394 0.47053,0 -0.869,1.8 -2.97673,4 C 180.89124,122.60736 180,123.25553 180,122.0606 Z M 599.82992,119 c -1.65849,-2.11474 -1.61133,-2.1619 0.50341,-0.50341 2.221,1.74183 2.92731,2.83674 1.82992,2.83674 -0.27686,0 -1.32686,-1.05 -2.33333,-2.33333 z m -303.79131,-1.61459 c -1.07876,-0.68223 -1.61426,-1.58754 -1.19,-2.0118 0.42427,-0.42426 1.53035,0.14311 2.45798,1.26083 1.92346,2.31763 1.55465,2.53606 -1.26798,0.75097 z m -16.70528,-4.05208 C 278.88011,112.6 279.48011,112 280.66667,112 c 1.18656,0 1.78656,0.6 1.33333,1.33333 -0.45323,0.73333 -1.05323,1.33333 -1.33333,1.33333 -0.28011,0 -0.88011,-0.6 -1.33334,-1.33333 z m 224.61807,-3.48058 c -1.19015,-3.60619 -1.90699,-4.37337 -2.81463,-3.01228 -0.79068,1.18571 -0.90156,0.47048 -0.31614,-2.03934 0.6955,-2.98185 0.50526,-3.62058 -0.83219,-2.79399 -1.09113,0.67436 -1.40872,0.54557 -0.85679,-0.34747 1.24343,-2.011927 -0.46388,-5.817735 -2.14404,-4.779336 -0.77741,0.480463 -1.00798,0.231308 -0.51865,-0.560444 0.48455,-0.784005 0.1568,-1.66686 -0.72832,-1.961899 -1.21424,-0.404748 -1.22731,-0.772518 -0.0532,-1.498149 1.64439,-1.016289 9.64589,13.235618 9.64589,17.180818 0,1.1642 0.6,1.7459 1.33334,1.29267 C 507.4,110.88011 508,111.10929 508,111.84262 c 0,3.58554 -2.63615,2.28989 -4.0486,-1.98987 z M 600,111.92131 c 0,-0.77661 0.6,-1.0412 1.33333,-0.58798 0.73334,0.45323 1.33334,1.08864 1.33334,1.41202 0,0.32339 -0.6,0.58798 -1.33334,0.58798 C 600.6,113.33333 600,112.69792 600,111.92131 Z M 281.50875,101.91173 c -8.70474,-9.320947 -10.94632,-12.578398 -8.65574,-12.578398 0.46915,0 1.71364,1.05 2.76554,2.333333 1.05189,1.283333 1.53264,1.583333 1.0683,0.666666 -0.46433,-0.916666 -0.52101,-1.666666 -0.126,-1.666666 0.39504,0 2.01411,2.55 3.59792,5.666666 1.58382,3.116667 4.96822,7.644469 7.52088,10.061779 2.55266,2.41731 4.34795,4.68838 3.98952,5.04681 -0.35844,0.35843 -4.93064,-3.93016 -10.16045,-9.53019 z M 298,110.66666 c -0.45323,-0.73333 -0.18864,-1.33333 0.58797,-1.33333 0.77662,0 1.41203,0.6 1.41203,1.33333 C 300,111.4 299.73541,112 299.41203,112 c -0.32339,0 -0.9588,-0.6 -1.41203,-1.33334 z m 237.42857,-2.09523 c -0.49042,-1.95402 -0.63454,-3.80991 -0.32025,-4.12419 0.31428,-0.31429 0.97268,1.02731 1.46311,2.98133 0.49042,1.95402 0.63454,3.8099 0.32025,4.12419 -0.31428,0.31428 -0.97268,-1.02732 -1.46311,-2.98133 z m -244.98026,-4.80519 c -2.1752,-2.32856 -4.83708,-6.078561 -5.91527,-8.33333 -1.94375,-4.064833 -1.94019,-4.073168 0.41997,-0.983381 1.30918,1.713909 4.40014,5.463909 6.8688,8.333331 5.36376,6.2345 4.26598,7.02047 -1.3735,0.98338 z m -89.00971,-1.87735 c 0.064,-1.55326 0.37992,-1.8692 0.80555,-0.80556 0.38516,0.9625 0.3378,2.1125 -0.1052,2.55556 -0.44307,0.44305 -0.75819,-0.34445 -0.7003,-1.75 z m 416.10525,-1.888892 c 0,-1.833333 0.30264,-2.583333 0.67252,-1.666667 0.36988,0.916667 0.36988,2.416669 0,3.333329 -0.36988,0.91667 -0.67252,0.16667 -0.67252,-1.666662 z M 203.94941,94.261442 c 0.53323,-2.343795 2.22478,-6.713101 3.75899,-9.709573 2.57016,-5.019776 3.13683,-5.396663 7.20721,-4.793543 L 219.33333,80.41291 214,82.06665 c -5.19817,1.611831 -5.23197,1.660731 -1.33333,1.92966 l 4,0.275923 -4.33334,1.390096 c -4.27933,1.372773 -5.90109,3.631115 -2.66666,3.713407 1.01785,0.02589 0.75833,0.731928 -0.66667,1.813657 -1.28333,0.974189 -2.33333,2.136276 -2.33333,2.582416 0,0.44614 1.05,0.434396 2.33333,-0.02609 2.81888,-1.011486 2.15204,-0.324476 -2.51004,2.585943 l -3.51004,2.191231 0.96949,-4.261444 z M 568,95.999998 c -1.72359,-1.113865 -1.68839,-1.295321 0.25464,-1.312916 1.24005,-0.0112 2.62547,0.579583 3.07869,1.312916 1.04291,1.687463 -0.72217,1.687463 -3.33333,0 z M 556.33333,93.004334 C 553.95,92.239781 552,90.874217 552,89.969748 c 0,-0.90447 -1.35,-2.554648 -3,-3.667062 -2.81253,-1.896186 -2.62508,-1.951636 3,-0.887364 3.3,0.624363 6.43459,1.161338 6.96576,1.193275 0.53117,0.03194 1.89657,1.858068 3.03424,4.058068 2.30684,4.460938 1.71424,4.705402 -5.66667,2.337669 z M 560,90.666665 c 0,-0.733333 -0.63541,-1.333333 -1.41203,-1.333333 -0.77661,0 -1.0412,0.6 -0.58797,1.333333 0.45323,0.733333 1.08864,1.333333 1.41203,1.333333 0.32338,0 0.58797,-0.6 0.58797,-1.333333 z m -14.66667,-1.333333 c 0,-0.733334 0.56459,-1.333334 1.25464,-1.333334 0.69006,0 1.62547,0.6 2.0787,1.333334 0.45322,0.733333 -0.11134,1.333333 -1.25464,1.333333 -1.14328,0 -2.0787,-0.6 -2.0787,-1.333333 z M 491.27851,87.91129 c -0.48338,-0.782122 -0.55871,-1.742204 -0.1674,-2.133514 0.95509,-0.955083 3.55556,0.727765 3.55556,2.300912 0,1.703962 -2.30188,1.590234 -3.38816,-0.167398 z m 81.69926,-9.410076 c 0.90446,-0.911224 1.98032,-1.320894 2.39084,-0.910378 0.41052,0.410516 -0.32948,1.156064 -1.64444,1.656772 -1.90026,0.72358 -2.05341,0.570428 -0.7464,-0.746394 z M 215.75,77.755846 c 0.96249,-0.385161 2.11249,-0.337792 2.55556,0.105267 0.44305,0.443056 -0.34445,0.758188 -1.75,0.700293 -1.55327,-0.06397 -1.8692,-0.379921 -0.80556,-0.805556 z m 56.35803,-2.88733 c -0.79275,-1.481264 -1.41503,-4.082652 -1.38284,-5.780863 0.0429,-2.262157 0.56153,-1.675412 1.93993,2.194638 2.057,5.775289 1.73248,7.864333 -0.55709,3.586225 z M 276,75.921309 c 0,-0.776612 0.6,-1.041203 1.33333,-0.587977 0.73334,0.453225 1.33334,1.088634 1.33334,1.412022 0,0.323388 -0.6,0.587978 -1.33334,0.587978 C 276.6,77.333332 276,76.697921 276,75.921309 Z m 207.44393,0.257643 c -0.57436,-0.929338 -0.68421,-2.049784 -0.24412,-2.489884 1.1933,-1.193281 2.49436,0.561737 1.84986,2.495258 -0.45163,1.3549 -0.7657,1.353848 -1.60574,-0.0053 z M 300,65.475984 c 0,-0.654875 0.98487,-1.568611 2.18859,-2.030523 1.82997,-0.702222 1.91245,-0.507114 0.50341,1.190682 -1.92017,2.31366 -2.692,2.554453 -2.692,0.839841 z m 98.41667,-2.386804 c 0.96249,-0.385161 2.1125,-0.337792 2.55556,0.105267 0.44305,0.443056 -0.34446,0.758188 -1.75,0.700293 -1.55327,-0.06397 -1.8692,-0.379921 -0.80556,-0.805556 z m 0.35734,-3.603167 c 0.42571,-0.446497 2.52571,-0.882021 4.66667,-0.967833 6.85247,-0.274655 18.49457,-2.896981 20.55932,-4.630886 1.1,-0.923743 3.8,-2.0355 6,-2.470571 3.14687,-0.622323 3.43124,-0.522277 1.33333,0.469072 l -2.66666,1.260109 2.66666,0.183955 c 2.32402,0.160317 2.23836,0.361301 -0.66666,1.564157 -1.83334,0.759112 -4.25722,1.844826 -5.3864,2.412695 -2.5017,1.258109 -27.59503,3.321241 -26.50626,2.179302 z M 283.61367,53.333332 c 0.38354,-1.466666 0.92737,-2.666666 1.2085,-2.666666 0.28114,0 0.51116,1.2 0.51116,2.666666 0,1.466667 -0.54382,2.666667 -1.2085,2.666667 -0.66468,0 -0.89471,-1.2 -0.51116,-2.666667 z m 223.053,2.142652 c 0,-0.288208 0.9,-0.869377 2,-1.291486 1.1,-0.422111 2,-0.186304 2,0.524014 0,0.710318 -0.9,1.291487 -2,1.291487 -1.1,0 -2,-0.235807 -2,-0.524015 z M 319.75,52.422514 c 0.96249,-0.385162 2.11249,-0.337792 2.55556,0.105266 0.44305,0.443056 -0.34445,0.758188 -1.75,0.700294 -1.55327,-0.06397 -1.8692,-0.379922 -0.80556,-0.805556 z m 181.63228,-3.422515 -3.1192,-4.333333 4.20179,3.916121 c 4.45322,4.150451 4.84724,4.750545 3.11921,4.750545 -0.59543,0 -2.48624,-1.95 -4.2018,-4.333333 z M 319.75,49.755847 c 0.96249,-0.385161 2.11249,-0.337792 2.55556,0.105267 0.44305,0.443056 -0.34445,0.758188 -1.75,0.700293 -1.55327,-0.06397 -1.8692,-0.379921 -0.80556,-0.805556 z m -37.65168,-4.232395 c -3.01579,-5.831881 -2.57719,-6.991927 0.64519,-1.706413 1.50344,2.466039 2.44544,4.771796 2.09332,5.123907 -0.35211,0.35211 -1.58444,-1.185762 -2.73851,-3.417494 z M 335.75,45.755847 c 0.96249,-0.385161 2.11249,-0.337792 2.55556,0.105267 0.44305,0.443056 -0.34445,0.758188 -1.75,0.700293 -1.55327,-0.06397 -1.8692,-0.379921 -0.80556,-0.805556 z m 110.91667,-0.321709 c 0,-0.63186 0.9,-1.494198 2,-1.916307 1.1,-0.422111 2,-0.250497 2,0.381363 0,0.63186 -0.9,1.494197 -2,1.916306 -1.1,0.422111 -2,0.250498 -2,-0.381362 z M 313.08333,44.422514 c 0.9625,-0.385162 2.1125,-0.337792 2.55556,0.105266 0.44306,0.443056 -0.34445,0.758188 -1.75,0.700294 -1.55326,-0.06397 -1.8692,-0.379922 -0.80556,-0.805556 z m 112,-2.666667 c 0.9625,-0.385161 2.11251,-0.337792 2.55556,0.105267 0.44306,0.443056 -0.34445,0.758188 -1.75,0.700293 -1.55326,-0.06397 -1.8692,-0.379921 -0.80556,-0.805556 z m 28.55159,-1.194145 c 1.26588,-1.321635 2.58859,-2.115973 2.93936,-1.765197 0.35077,0.350776 -0.68493,1.432113 -2.30159,2.402973 -2.80841,1.686557 -2.83682,1.658144 -0.63777,-0.637776 z m 29.82064,-1.697264 c -0.386,-0.624559 -3.44329,-2.18254 -6.79397,-3.46218 -6.1803,-2.360272 -8.49688,-1.97228 -16.97966,2.843828 -0.5416,0.307495 -0.60976,-0.418044 -0.15148,-1.612308 1.91987,-5.003104 10.67804,-5.866096 19.57816,-1.929149 5.90024,2.609956 9.13676,5.29537 6.3821,5.29537 -0.73334,0 -1.64915,-0.511002 -2.03515,-1.135561 z M 316.14453,297.14513 c 2.18831,-3.45372 1.30462,-7.85442 -1.8112,-9.01967 -2.40289,-0.89863 -3.2293,-0.55836 -4.15209,1.70963 -0.66983,1.64626 -1.40369,2.16484 -1.75313,1.23882 -0.33059,-0.87601 0.0436,-2.79729 0.8315,-4.2695 1.82547,-3.41092 -1.75866,-7.06622 -9.07921,-9.25951 -2.79377,-0.83703 -6.09617,-2.64519 -7.33867,-4.01812 -2.22448,-2.45803 -11.5084,-23.50109 -11.5084,-26.0851 0,-0.72907 3.3,-6.85551 7.33334,-13.61431 C 292.7,227.06857 296,220.32786 296,218.84801 c 0,-3.15324 -2.16873,-4.95517 -3.03655,-2.52299 -0.41166,1.15372 -1.69189,0.66904 -4.11388,-1.55744 -1.93393,-1.77784 -3.51624,-2.65576 -3.51624,-1.95093 0,0.76827 -7.07516,1.17805 -17.66666,1.02321 L 250,213.5816 l 15.67192,0.99222 c 8.61956,0.54574 15.92061,1.24094 16.22459,1.54491 0.30396,0.30396 -6.53947,0.60635 -15.20763,0.67197 -15.50799,0.11747 -15.85196,0.18674 -21.48725,4.33098 -6.7875,4.99157 -5.87514,5.67148 1.17862,0.87832 4.47031,-3.03766 6.1494,-3.33152 18.92926,-3.31292 7.7131,0.0107 14.77934,0.50005 15.70276,1.08628 0.92341,0.58621 -5.37659,0.92098 -14,0.74392 l -15.67894,-0.32192 14.58492,1.2084 c 19.7604,1.63721 20.36698,2.36449 2.08175,2.49596 -12.81191,0.0921 -16.04591,0.54472 -19.66667,2.75233 -5.01654,3.05865 -5.66129,4.61579 -1.34378,3.24547 2.65752,-0.84347 2.78746,-0.70536 1.17006,1.24348 -1.0007,1.20578 -1.21946,2.19233 -0.48613,2.19233 0.73333,0 2.05071,-0.86439 2.92749,-1.92085 0.8768,-1.05647 2.90027,-2.17766 4.4966,-2.49152 1.59634,-0.31388 0.95243,-0.38722 -1.4309,-0.16299 -2.38334,0.22424 -4.33334,-0.0895 -4.33334,-0.69725 0,-2.16888 7.3066,-2.87624 19.2269,-1.86136 6.65853,0.56689 10.60644,1.2787 8.7731,1.58181 -3.09954,0.51245 -3.1463,0.6264 -0.66666,1.62459 1.67853,0.6757 -2.02695,1.17553 -10,1.34888 L 254,231.03004 l 11.14585,1.07528 c 13.14663,1.2683 16.5424,2.98765 4.51494,2.28601 -9.74911,-0.56875 -11.21896,0.92421 -1.99412,2.02544 8.64004,1.03143 10.74912,1.5374 11.96141,2.86951 0.57123,0.62769 0.28859,0.70965 -0.62808,0.18213 -0.91667,-0.52752 -1.66667,-0.30988 -1.66667,0.48364 0,0.85975 -1.27206,0.60927 -3.14798,-0.61988 -2.05872,-1.34893 -6.45906,-2.09364 -12.71699,-2.15224 -10.03017,-0.0939 -13.86068,1.49372 -13.18775,5.46588 0.2085,1.23067 -1.21857,4.3322 -3.17124,6.89229 -5.69296,7.46385 -5.5268,11.9404 0.5573,15.01349 6.92956,3.50015 9.05302,5.10623 14.67728,11.10108 4.23722,4.51644 5.94173,5.49244 8.47964,4.85546 1.91533,-0.48071 3.17641,-0.21048 3.17641,0.68065 0,0.81284 0.69299,1.47788 1.53999,1.47788 0.98765,0 0.82124,-0.83687 -0.464,-2.33333 -1.1022,-1.28334 -2.34362,-3.29802 -2.75872,-4.47708 -0.41511,-1.17907 -2.54622,-2.50204 -4.73579,-2.93996 -2.38219,-0.47644 -5.21099,-2.5235 -7.04349,-5.097 -1.68434,-2.36544 -2.19443,-3.75164 -1.13355,-3.08047 1.06089,0.67119 2.22889,1.2798 2.59556,1.35248 5.28925,1.0484 13.33333,6.80295 13.33333,9.53835 0,0.93702 0.6,1.70368 1.33334,1.70368 0.73333,0 1.33333,1.23541 1.33333,2.74536 0,1.50994 0.6,2.37453 1.33333,1.9213 0.73334,-0.45322 1.33334,-0.18864 1.33334,0.58798 0,0.77661 -1.23542,1.41202 -2.74536,1.41202 -1.50995,0 -2.37454,0.6 -1.92131,1.33334 0.47564,0.7696 -0.78051,1.33333 -2.97104,1.33333 -3.26165,0 -3.83799,0.56324 -4.10041,4.00724 -0.16794,2.20399 0.15444,3.93293 0.71638,3.84211 3.11966,-0.50422 5.6884,0.37148 5.6884,1.93918 0,1.2347 2.14359,1.8644 6.92243,2.03355 3.80735,0.13475 7.25735,0.59324 7.66667,1.01887 1.5583,1.62034 27.05065,-0.51363 28.2221,-2.36248 z m -28.66854,-0.58752 c -0.44514,-1.15998 -0.80932,-2.65998 -0.80932,-3.33334 0,-1.79045 5.0621,-6.55761 6.96334,-6.55761 0.8965,0 0.26794,0.95403 -1.39681,2.12007 -3.06941,2.1499 -3.55293,6.91033 -0.89987,8.85952 0.76484,0.5619 0.39928,0.98828 -0.85734,1 -1.20488,0.0107 -2.55488,-0.92866 -3,-2.08864 z m 12.62928,-6.66872 c 0.064,-1.55327 0.37992,-1.8692 0.80554,-0.80556 0.38516,0.96249 0.3378,2.11249 -0.1052,2.55556 -0.44306,0.44305 -0.75818,-0.34446 -0.70029,-1.75 z m -17.6886,-9.46638 c 0.96249,-0.38516 2.11249,-0.3378 2.55556,0.1052 0.44305,0.44306 -0.34446,0.75819 -1.75,0.7003 -1.55327,-0.064 -1.8692,-0.37992 -0.80556,-0.80555 z m -30.66184,-25.09482 c -0.83674,-1.83643 -1.04174,-3.78643 -0.45555,-4.33334 0.58619,-0.54689 1.33365,-0.24436 1.66104,0.67231 1.3646,3.82091 4.37491,1.58771 4.49327,-3.33333 l 0.12026,-5 1.28386,4.45935 c 0.99402,3.45262 0.80942,5.18342 -0.81766,7.66666 -2.68064,4.09119 -4.37736,4.05564 -6.28521,-0.1316 z m 14.91184,-0.58234 c 0,-0.69005 0.6,-1.62546 1.33333,-2.07869 0.73333,-0.45323 1.33333,0.11133 1.33333,1.25464 0,1.14328 -0.6,2.07869 -1.33333,2.07869 -0.73333,0 -1.33333,-0.56458 -1.33333,-1.25464 z M 266.9266,246 c 0.0272,-2.2 0.326,-2.93859 0.66405,-1.6413 0.33806,1.2973 0.31583,3.0973 -0.0495,4 -0.36524,0.90271 -0.64183,-0.15871 -0.61466,-2.3587 z m 12.90332,-11 c -1.65849,-2.11475 -1.61133,-2.16191 0.50341,-0.50342 2.221,1.74183 2.92731,2.83675 1.82992,2.83675 -0.27686,0 -1.32686,-1.05 -2.33333,-2.33333 z m 3.58191,-6.37574 c -1.4235,-1.07668 -1.94696,-1.9576 -1.16326,-1.9576 0.7837,0 2.17184,0.9 3.08476,2 2.07627,2.50176 1.42312,2.48735 -1.9215,-0.0424 z m 126.67928,66.59735 c -0.56068,-2.23391 -0.37712,-3.14374 0.52212,-2.58798 0.76272,0.47139 1.38677,1.68499 1.38677,2.69688 0,1.48511 2.63471,1.71946 13.66667,1.21558 22.69445,-1.03656 26.18468,-1.42954 28.30188,-3.18666 2.85653,-2.37072 2.5252,-6.3347 -0.67256,-8.04609 -1.4872,-0.79593 -2.41055,-1.92197 -2.05188,-2.50231 0.35866,-0.58034 -1.27452,-2.91205 -3.62932,-5.18157 l -4.28146,-4.1264 -7.94456,1.85947 c -4.3695,1.0227 -8.1903,1.61372 -8.49066,1.31336 -0.30036,-0.30036 1.17469,-0.91684 3.27789,-1.36995 6.78711,-1.4622 9.82389,-3.19569 9.82899,-5.61069 0.003,-1.29906 1.20273,-4.32643 2.66666,-6.72748 1.46392,-2.40106 2.66168,-5.33884 2.66168,-6.52839 0,-1.18956 2.67556,-5.02323 5.9457,-8.51926 7.95432,-8.5038 10.26605,-17.85852 3.34509,-13.53632 -1.42336,0.8889 -6.76067,1.6162 -11.86067,1.6162 -12.5842,0 -13.50089,2.42216 -1.13885,3.00914 6.37547,0.30272 4.44439,0.49886 -5.6246,0.57126 -8.43333,0.0607 -14.28333,-0.16414 -13,-0.49951 1.28333,-0.33536 2.33333,-1.18117 2.33333,-1.87956 0,-0.6984 -1.95,-0.27809 -4.33333,0.934 -5.68437,2.89091 -6.43585,3.73727 -2.33333,2.62793 3.2026,-0.866 3.23182,-0.8202 0.74516,1.1677 -1.4235,1.13797 -3.0735,2.06904 -3.66667,2.06904 -0.59317,0 -1.07849,0.64893 -1.07849,1.44208 0,0.80429 1.91649,0.30929 4.33333,-1.11924 3.80117,-2.24679 5.88887,-2.45036 17,-1.65776 l 12.66667,0.90356 -13.05312,0.21568 c -10.00814,0.16537 -14.24491,0.82369 -18.16206,2.82206 -4.43321,2.26165 -7.40413,6.43223 -6.92902,9.72695 0.0793,0.55 -0.7347,1 -1.8089,1 -2.71013,0 -4.20786,3.44262 -5.15518,11.84953 -0.44518,3.95057 -1.78122,8.25671 -2.96899,9.56917 -4.60317,5.08646 -4.87756,17.24796 -0.38915,17.24796 0.83232,0 0.5183,-1.40636 -0.7443,-3.33333 -3.04132,-4.64164 -1.50335,-4.15957 3.19042,1 2.16818,2.38333 3.95971,3.6568 3.98122,2.82992 0.0215,-0.82687 -0.86092,-2.25033 -1.96092,-3.16325 -1.1,-0.91292 -1.98176,-2.63639 -1.95946,-3.82992 0.0324,-1.73204 0.35135,-1.6318 1.58031,0.49658 0.84687,1.46667 2.32861,3.45952 3.29279,4.42858 0.96416,0.96904 1.75302,2.31904 1.75302,3 0,0.68094 0.36504,1.23809 0.81122,1.23809 0.44616,0 0.42212,-1.55027 -0.0535,-3.44505 z m 36.57556,-6.47626 c 0,-1.05672 0.54404,-2.25754 1.20898,-2.6685 0.66495,-0.41096 0.89496,0.45362 0.51116,1.9213 -0.81414,3.11332 -1.72014,3.50687 -1.72014,0.7472 z m -18,-2.07869 c 0.45322,-0.73333 1.72404,-1.33333 2.82404,-1.33333 1.1,0 1.62918,0.6 1.17596,1.33333 -0.45323,0.73333 -1.72404,1.33333 -2.82404,1.33333 -1.1,0 -1.62919,-0.6 -1.17596,-1.33333 z M 433,283.11695 c 0.91667,-0.36988 2.41667,-0.36988 3.33333,0 0.91667,0.36988 0.16667,0.67252 -1.66666,0.67252 -1.83334,0 -2.58334,-0.30264 -1.66667,-0.67252 z M 416.30525,259.7509 c 0.66438,-1.99312 3.69475,-3.09052 3.69475,-1.338 0,0.71599 -0.95013,1.66639 -2.11141,2.11201 -1.29855,0.49831 -1.90811,0.20032 -1.58334,-0.77401 z m 11.36142,-4.69188 c 1.65,-0.31781 4.35,-0.31781 6,0 1.65,0.3178 0.3,0.57783 -3,0.57783 -3.3,0 -4.65,-0.26003 -3,-0.57783 z m 9.66666,-0.39236 c 0,-0.73333 0.6,-1.33333 1.33334,-1.33333 0.73333,0 1.33333,0.6 1.33333,1.33333 0,0.73333 -0.6,1.33333 -1.33333,1.33333 -0.73334,0 -1.33334,-0.6 -1.33334,-1.33333 z M 416,253.33333 c 0,-0.73334 0.56459,-1.33334 1.25464,-1.33334 0.69005,0 1.62547,0.6 2.07869,1.33334 0.45323,0.73333 -0.11133,1.33333 -1.25464,1.33333 -1.14328,0 -2.07869,-0.6 -2.07869,-1.33333 z m 5.33333,-2 c 0,-1.58382 1.73412,-1.96222 8.33334,-1.81843 4.58333,0.0999 6.88606,0.45435 5.11718,0.78773 -2.54793,0.48022 -2.82496,0.87616 -1.33333,1.90576 1.87948,1.29732 0.49743,1.10074 -6.78385,-0.96492 C 425.19304,250.82542 424,251.12361 424,251.91014 c 0,0.78276 -0.6,1.42319 -1.33333,1.42319 -0.73334,0 -1.33334,-0.9 -1.33334,-2 z m 2.5935,-5.16639 c 1.49345,-0.67717 6.38225,-0.62634 11.65609,0.1212 l 9.08375,1.28758 -11.65608,-0.1212 c -7.81474,-0.0812 -10.80836,-0.50559 -9.08376,-1.28759 z M 543,279.11695 c -0.91667,-0.36988 -2.41667,-0.36988 -3.33333,0 -0.91667,0.36988 -0.16667,0.67252 1.66666,0.67252 1.83334,0 2.58334,-0.30264 1.66667,-0.67252 z M 263.23809,268.7619 c -1.41197,-1.03247 -2.86724,-1.57721 -3.2339,-1.21055 -0.36667,0.36667 0.4886,1.51142 1.90057,2.54388 1.41199,1.03247 2.86724,1.57722 3.23391,1.21055 0.36666,-0.36667 -0.48859,-1.51141 -1.90058,-2.54388 z m 234.7151,-20.21092 c 2.30394,-3.51626 2.03322,-5.52401 -0.53115,-3.93914 -0.78212,0.48338 -1.42204,1.99346 -1.42204,3.35573 0,1.36228 -0.75,2.7795 -1.66667,3.14938 -1.0661,0.43019 -1.12136,0.71044 -0.15334,0.77778 0.83232,0.0579 2.53026,-1.44679 3.7732,-3.34375 z m -4.61986,-3.3938 c 0,0.91678 0.6,1.29604 1.33334,0.84282 C 495.4,245.54677 496,244.21136 496,243.03242 c 0,-1.17894 -0.37448,-1.76905 -0.83219,-1.31134 -0.4577,0.4577 -1.88524,-0.46827 -3.17229,-2.05772 -2.31469,-2.85852 -2.34087,-2.82532 -2.41092,3.0567 -0.0652,5.47004 0.0823,5.73919 1.83896,3.35843 1.05037,-1.42349 1.90977,-1.83808 1.90977,-0.92131 z m -6.20088,-5.78114 c 0.4131,-1.07652 0.1773,-2.31194 -0.52401,-2.74536 -0.70131,-0.43344 -1.27511,0.44734 -1.27511,1.95729 0,3.21943 0.74148,3.54421 1.79912,0.78807 z m -56.82689,-1.51494 c -0.44305,-0.44305 -1.59307,-0.49041 -2.55556,-0.1052 -1.06364,0.42563 -0.74771,0.74158 0.80556,0.80555 1.40555,0.0579 2.19305,-0.25724 1.75,-0.70029 z m -32.58167,-5.38776 c -0.17146,-0.9087 3.38991,-1.69861 9.39622,-2.08406 5.31977,-0.34142 10.84402,-1.33099 12.2761,-2.19908 2.214,-1.34207 1.80538,-1.48222 -2.72954,-0.93611 -2.93334,0.35323 -4.16814,0.29939 -2.74399,-0.11973 5.40281,-1.58975 28.73167,-20.85922 27.18097,-22.4513 -0.493,-0.50614 -3.10593,1.52547 -5.80652,4.5147 -7.66316,8.4822 -19.43096,15.70585 -27.58585,16.93354 -6.98181,1.05108 -7.00301,1.06852 -2.37795,1.95572 3.75472,0.72027 2.84279,0.96032 -4.66666,1.22847 -5.13334,0.18331 -11.13334,0.79131 -13.33334,1.35111 -3.53717,0.90005 -3.22862,1.04692 2.66667,1.26929 5.19892,0.19611 6.07957,0.51932 4,1.46811 -2.39331,1.09193 -2.32497,1.18158 0.66667,0.87464 1.83333,-0.18811 3.20908,-1.00052 3.05722,-1.80536 z m 39.94278,1.31028 c -0.91667,-0.36988 -2.41667,-0.36988 -3.33334,0 -0.91666,0.36988 -0.16666,0.67252 1.66667,0.67252 1.83333,0 2.58333,-0.30264 1.66667,-0.67252 z m -32,-1.33333 c -0.91667,-0.36988 -2.41667,-0.36988 -3.33334,0 -0.91666,0.36988 -0.16666,0.67252 1.66667,0.67252 1.83333,0 2.58333,-0.30264 1.66667,-0.67252 z m -39,-1.78363 c -2.60758,-1.68514 -6.29186,-1.68514 -7.33334,0 -0.49498,0.8009 1.20402,1.32519 4.25464,1.31292 3.77003,-0.0152 4.56334,-0.35346 3.0787,-1.31292 z m -17.33334,-0.58797 c 0,-1.40731 -2.55881,-1.99855 -3.31989,-0.76711 -0.46061,0.7453 0.0979,1.35508 1.2412,1.35508 1.14328,0 2.07869,-0.26458 2.07869,-0.58797 z m 0.0155,-5.52655 c -3.59529,-3.36297 -8.81959,-9.65773 -11.60953,-13.98833 -5.74191,-8.91268 -8.42491,-10.57365 -4.30167,-2.66304 3.14028,6.02469 18.47375,22.76589 20.8516,22.76589 0.87811,0 -1.34505,-2.75153 -4.94036,-6.11452 z m 84.05129,-2.13733 C 443.11803,214.59685 445.92073,212 444.64052,212 c -0.4858,0 -3.33665,2.1 -6.33523,4.66666 -9.03981,7.73775 -8.91941,5.16094 0.1577,-3.37494 4.65464,-4.37712 8.10617,-7.95839 7.67008,-7.95839 -0.43611,0 -5.85526,4.3392 -12.04256,9.64265 -10.96132,9.39554 -13.83858,12.87464 -6.87286,8.31054 2.07422,-1.35908 3.44902,-1.66728 3.44902,-0.7732 0,0.81768 -0.45,1.50002 -1,1.51633 -1.62622,0.0483 -7.79696,5.24163 -6.26654,5.27403 0.77007,0.0163 5.27007,-3.08368 10,-6.88887 z m 15.34503,4.84496 c 2.50016,-2.00304 2.48913,-2.02571 -0.32417,-0.66667 -3.76304,1.81784 -4.80875,1.77966 -3.627,-0.1324 0.59417,-0.96138 0.36524,-1.17709 -0.60972,-0.57453 -1.57562,0.97377 -0.87752,3.44721 0.97292,3.44721 0.54989,0 2.16448,-0.93309 3.58797,-2.07356 z m -199.41179,-4.12669 c 0,-0.96451 -5.13862,2.13986 -6.0899,3.67905 -0.4978,0.80547 0.66878,0.43323 2.59241,-0.82717 1.92361,-1.26042 3.49749,-2.54376 3.49749,-2.85188 z m 173.90762,-7.00324 c -0.35078,-0.35078 -1.67348,0.44356 -2.93936,1.7652 -2.19906,2.29592 -2.17064,2.32433 0.63777,0.63777 1.61665,-0.97087 2.65236,-2.0522 2.30159,-2.40297 z M 394.66667,214 c -0.91292,-1.1 -2.25986,-2 -2.99319,-2 -0.74377,0 -0.59939,0.88434 0.32652,2 0.91292,1.1 2.25985,2 2.99319,2 0.74377,0 0.59938,-0.88435 -0.32652,-2 z M 431,210.92388 c 3.94569,-3.38852 2.57979,-4.51926 -1.66667,-1.37972 -2.2,1.62653 -4,3.4799 -4,4.11861 0,1.30557 2.18935,0.24739 5.66667,-2.73889 z m -141.06529,-0.24843 c -2.0731,-2.07309 -4.99856,-2.79449 -13.2963,-3.27873 -10.29769,-0.60098 -10.40354,-0.5776 -3.30508,0.72986 10.7735,1.98438 11.03883,2.04963 14.66667,3.60688 4.73011,2.0304 4.91953,1.92682 1.93471,-1.05801 z M 277,211.08089 c -1.28333,-0.33536 -3.38333,-0.33536 -4.66667,0 -1.28333,0.33537 -0.23333,0.60977 2.33334,0.60977 2.56666,0 3.61666,-0.2744 2.33333,-0.60977 z m 24.33333,0.19436 c 0,-1.18575 -9.72277,-11.33027 -10.30305,-10.74997 -0.95464,0.95464 6.92068,11.37202 8.63639,11.42412 0.91666,0.0279 1.66666,-0.27554 1.66666,-0.67415 z M 424,210.66666 c 0,-0.73333 -0.56459,-1.33333 -1.25464,-1.33333 -0.69005,0 -1.62547,0.6 -2.07869,1.33333 C 420.21344,211.4 420.778,212 421.92131,212 423.06459,212 424,211.4 424,210.66666 Z m -161.69444,-2.13889 c -0.44307,-0.44305 -1.59307,-0.49041 -2.55556,-0.1052 -1.06364,0.42563 -0.74771,0.74157 0.80556,0.80555 1.40555,0.0579 2.19305,-0.25724 1.75,-0.7003 z m 20.36111,-3.19444 c -1.1,-0.71088 -2.6,-1.29249 -3.33334,-1.29249 -0.73333,0 -0.43333,0.58161 0.66667,1.29249 1.1,0.71088 2.6,1.29249 3.33333,1.29249 0.73334,0 0.43334,-0.58161 -0.66666,-1.29249 z m -8.33334,-0.955 c -2.01666,-0.30551 -5.31666,-0.30551 -7.33333,0 -2.01667,0.30549 -0.36667,0.55545 3.66667,0.55545 4.03333,0 5.68333,-0.24996 3.66666,-0.55545 z m 159.79599,-4.05609 c 1.39555,-1.28943 3.65652,-3.66311 5.0244,-5.27484 2.20391,-2.5968 2.26076,-3.15674 0.49931,-4.91819 -1.76146,-1.76144 -2.31026,-1.64447 -4.82039,1.02745 -3.95979,4.215 -3.55272,5.98466 0.50069,2.17667 5.2308,-4.91408 3.89642,-1.35575 -1.60393,4.27712 -4.86789,4.98517 -4.53123,7.26801 0.39992,2.71179 z m 6.80528,0.0107 c -1.04856,2.87532 2.04108,3.17412 4.328,0.41856 1.21177,-1.46009 1.22223,-2.60032 0.044,-4.80185 l -1.54513,-2.88709 -3.88074,3.71798 c -4.46868,4.28127 -5.33449,7.57551 -0.98797,3.75906 2.59696,-2.28027 2.80575,-2.3014 2.04184,-0.20666 z M 190.66667,169.73413 c 0,-0.44775 -1.2,0.27188 -2.66667,1.5992 -2.9082,2.63189 -3.69373,1.03625 -1,-2.03129 0.91667,-1.04387 0.31667,-0.77088 -1.33333,0.60665 -2.98528,2.49232 -4.25739,5.69245 -1.61323,4.05828 0.90831,-0.56137 1.07823,0.44655 0.49249,2.92131 -0.83773,3.53946 -0.67249,3.45846 2.61323,-1.28083 1.92913,-2.78256 3.50751,-5.42556 3.50751,-5.87332 z m 5.39954,-3.76837 c 4.28515,-2.21594 4.96855,-3.2991 2.0815,-3.2991 -1.9468,0 -8.92558,5.21226 -7.0815,5.28898 0.58642,0.0244 2.83642,-0.87106 5,-1.98988 z m -13.39954,-15.62562 c 0,-0.74377 -0.88435,-0.59938 -2,0.32652 -1.1,0.91292 -2,2.25986 -2,2.99319 0,0.74377 0.88434,0.59939 2,-0.32652 1.1,-0.91292 2,-2.25985 2,-2.99319 z M 84.761919,138.5835 c 2.880945,-1.51241 4.132341,-2.40985 2.78088,-1.99432 -1.35146,0.41554 -3.90146,1.118 -5.666667,1.56104 -1.765205,0.44304 -3.209465,1.34048 -3.209465,1.99432 0,1.60791 0.114813,1.5785 6.095252,-1.56104 z M 582.66667,89.333332 c 0,-0.733334 -0.26459,-1.333334 -0.58798,-1.333334 -0.32338,0 -0.9588,0.6 -1.41202,1.333334 -0.45323,0.733333 -0.18864,1.333333 0.58797,1.333333 0.77661,0 1.41203,-0.6 1.41203,-1.333333 z m 27.93356,-11.333334 c 0.0239,-1.736902 -9.93355,-9.999999 -12.05054,-9.999999 -1.12336,0 -0.99237,0.72491 0.42164,2.333333 1.12822,1.283333 3.36286,4.94106 4.96586,8.12828 2.71725,5.402641 3.04082,5.628301 4.77961,3.333333 1.02579,-1.353887 1.87332,-3.061613 1.88343,-3.794947 z"
       id="path3189" />
  </g>
</svg>
