<svg xmlns="http://www.w3.org/2000/svg" x="0px" y="0px" width="100" height="100" viewBox="0 0 100 100">
<path d="M52,98c-12.096,0-22.977-9.659-27.821-24.361 C22,70,13.144,64.873,12.089,58.572c-0.304-1.817,0.182-3.688,1.333-5.129c2.583-3.229,5.845-5.064,8.813-6.106 c0.443-2.743,1.086-5.396,1.922-7.941C22.147,38.461,21.554,34.346,20,33c-6.579-0.354-13-2.835-13-9.5C7,16.607,12.607,11,19.5,11 S32,16.607,32,23.5c0,0.553-0.037,1.102-0.108,1.642C37.372,18.623,44.438,15,52,15s14.629,3.623,20.108,10.143 C72.037,24.602,72,24.053,72,23.5C72,16.607,77.607,11,84.5,11S97,16.607,97,23.5c0,6.665-5.243,12.128-11.822,12.481 c-1.554,1.346-3.325,2.479-5.335,3.414c0.836,2.545,1.479,5.198,1.922,7.941c2.969,1.041,6.23,2.877,8.812,6.104 c1.154,1.446,1.639,3.315,1.335,5.132c-1.055,6.3-5.211,13.079-12.09,15.066C74.977,88.34,64.096,98,52,98z" opacity=".35"></path><path fill="#f2f2f2" d="M50,96c-12.096,0-22.977-9.659-27.821-24.361c-6.879-1.986-11.035-8.766-12.09-15.066 c-0.304-1.817,0.182-3.688,1.333-5.129c2.583-3.229,5.845-5.064,8.813-6.106c0.443-2.743,1.086-5.396,1.922-7.941 c-2.01-0.935-3.781-2.068-5.335-3.414C10.243,33.628,5,28.165,5,21.5C5,14.607,10.607,9,17.5,9S30,14.607,30,21.5 c0,0.553-0.037,1.102-0.108,1.642C35.372,16.623,42.438,13,50,13s14.629,3.623,20.108,10.143C70.037,22.602,70,22.053,70,21.5 C70,14.607,75.607,9,82.5,9S95,14.607,95,21.5c0,6.665-5.243,12.128-11.822,12.481c-1.554,1.346-3.325,2.479-5.335,3.414 c0.836,2.545,1.479,5.198,1.922,7.941c2.969,1.041,6.23,2.877,8.812,6.104c1.154,1.446,1.639,3.315,1.335,5.132 c-1.055,6.3-5.211,13.079-12.09,15.066C72.977,86.34,62.096,96,50,96z"></path><circle cx="17.5" cy="21.5" r="6" fill="#96c362"></circle><circle cx="82.5" cy="21.5" r="6" fill="#96c362"></circle><path fill="#739f4d" d="M73.848,50.602C72.518,33.108,62.351,19.5,50,19.5S27.482,33.108,26.152,50.602 c-2.228,0.267-6.733,1.249-9.652,4.898c0,0,1.837,10.979,10.757,10.174C30.455,79.522,39.426,89.5,50,89.5 s19.545-9.978,22.743-23.826C81.663,66.479,83.5,55.5,83.5,55.5C80.582,51.852,76.077,50.869,73.848,50.602z"></path><circle cx="17.5" cy="21.5" r="6" fill="none" stroke="#40396e" stroke-linecap="round" stroke-linejoin="round" stroke-miterlimit="10" stroke-width="3"></circle><path fill="none" stroke="#40396e" stroke-linecap="round" stroke-linejoin="round" stroke-miterlimit="10" stroke-width="3" d="M19.5,27.5c1.812,2.145,5.005,4.595,11.316,5.869"></path><circle cx="82.5" cy="21.5" r="6" fill="none" stroke="#40396e" stroke-linecap="round" stroke-linejoin="round" stroke-miterlimit="10" stroke-width="3"></circle><path fill="none" stroke="#40396e" stroke-linecap="round" stroke-linejoin="round" stroke-miterlimit="10" stroke-width="3" d="M80.5,27.5c-1.812,2.145-5.005,4.595-11.316,5.869"></path><path fill="none" stroke="#40396e" stroke-linecap="round" stroke-linejoin="round" stroke-miterlimit="10" stroke-width="3" d="M73.848,50.602C72.518,33.108,62.351,19.5,50,19.5S27.482,33.108,26.152,50.602c-2.228,0.267-6.733,1.249-9.652,4.898 c0,0,1.837,10.979,10.757,10.174C30.455,79.522,39.426,89.5,50,89.5s19.545-9.978,22.743-23.826C81.663,66.479,83.5,55.5,83.5,55.5 C80.582,51.852,76.077,50.869,73.848,50.602z"></path><ellipse cx="50" cy="54.5" fill="#96c362" rx="22.5" ry="33.5"></ellipse><ellipse cx="41" cy="55.5" fill="#fff" rx="5" ry="7.5"></ellipse><ellipse cx="59" cy="55.5" fill="#fff" rx="5" ry="7.5"></ellipse><circle cx="41" cy="57" r="2" fill="#40396e"></circle><circle cx="59" cy="57" r="2" fill="#40396e"></circle><path fill="#40396e" d="M61,76H39c0,0,2.444-6,11.014-6C58.556,70,61,76,61,76z"></path>
</svg>